<svg width="350" height="224" viewBox="0 0 350 224" fill="none" xmlns="http://www.w3.org/2000/svg">
<path d="M10.608 9.724C12.7613 9.724 14.5633 9.928 16.014 10.336C17.4873 10.7213 18.5867 11.3673 19.312 12.274C20.06 13.158 20.434 14.3593 20.434 15.878C20.434 16.7847 20.2867 17.612 19.992 18.36C19.6973 19.108 19.2667 19.72 18.7 20.196C18.156 20.672 17.4873 20.978 16.694 21.114V21.284C17.51 21.4427 18.2467 21.726 18.904 22.134C19.5613 22.542 20.0827 23.1313 20.468 23.902C20.8533 24.6727 21.046 25.6927 21.046 26.962C21.046 28.4353 20.6833 29.7047 19.958 30.77C19.2553 31.8127 18.2353 32.6173 16.898 33.184C15.5607 33.728 13.974 34 12.138 34H3.06V9.724H10.608ZM11.186 19.346C12.682 19.346 13.7133 19.108 14.28 18.632C14.8693 18.156 15.164 17.4647 15.164 16.558C15.164 15.6287 14.824 14.96 14.144 14.552C13.464 14.144 12.3873 13.94 10.914 13.94H8.194V19.346H11.186ZM8.194 23.426V29.75H11.56C13.1013 29.75 14.178 29.4553 14.79 28.866C15.402 28.254 15.708 27.4493 15.708 26.452C15.708 25.84 15.572 25.3073 15.3 24.854C15.0507 24.4007 14.6087 24.0493 13.974 23.8C13.3393 23.5507 12.478 23.426 11.39 23.426H8.194ZM32.6958 34V9.724H51.9058V34H46.7718V14.008H37.8298V34H32.6958ZM70.9838 34H57.0098V9.724H70.9838V13.94H62.1438V19.278H70.3718V23.494H62.1438V29.75H70.9838V34ZM84.3652 34H79.2312V14.008H72.6352V9.724H90.9612V14.008H84.3652V34ZM107.659 34H93.6846V9.724H107.659V13.94H98.8186V19.278H107.047V23.494H98.8186V29.75H107.659V34ZM119.442 9.724C122.57 9.724 124.848 10.404 126.276 11.764C127.727 13.1013 128.452 14.9487 128.452 17.306C128.452 18.3713 128.293 19.3913 127.976 20.366C127.659 21.318 127.126 22.1793 126.378 22.95C125.653 23.698 124.689 24.2873 123.488 24.718C122.287 25.1487 120.802 25.364 119.034 25.364H116.824V34H111.69V9.724H119.442ZM119.17 13.94H116.824V21.148H118.524C119.499 21.148 120.337 21.0233 121.04 20.774C121.743 20.5247 122.287 20.128 122.672 19.584C123.057 19.04 123.25 18.3373 123.25 17.476C123.25 16.2747 122.921 15.3907 122.264 14.824C121.607 14.2347 120.575 13.94 119.17 13.94ZM147.354 9.724V13.974H137.154V34H132.02V9.724H147.354ZM171.426 21.828C171.426 23.7093 171.188 25.4207 170.712 26.962C170.259 28.4807 169.556 29.7953 168.604 30.906C167.675 32.0167 166.473 32.8667 165 33.456C163.549 34.0453 161.838 34.34 159.866 34.34C157.894 34.34 156.171 34.0453 154.698 33.456C153.247 32.844 152.046 31.994 151.094 30.906C150.165 29.7953 149.462 28.4693 148.986 26.928C148.533 25.3867 148.306 23.6753 148.306 21.794C148.306 19.278 148.714 17.0907 149.53 15.232C150.369 13.3733 151.638 11.934 153.338 10.914C155.061 9.87133 157.248 9.35 159.9 9.35C162.529 9.35 164.694 9.87133 166.394 10.914C168.094 11.934 169.352 13.3847 170.168 15.266C171.007 17.1247 171.426 19.312 171.426 21.828ZM153.712 21.828C153.712 23.528 153.927 24.99 154.358 26.214C154.789 27.438 155.457 28.3787 156.364 29.036C157.271 29.6933 158.438 30.022 159.866 30.022C161.339 30.022 162.518 29.6933 163.402 29.036C164.309 28.3787 164.966 27.438 165.374 26.214C165.805 24.99 166.02 23.528 166.02 21.828C166.02 19.2667 165.544 17.2607 164.592 15.81C163.64 14.3593 162.076 13.634 159.9 13.634C158.449 13.634 157.271 13.9627 156.364 14.62C155.457 15.2773 154.789 16.218 154.358 17.442C153.927 18.666 153.712 20.128 153.712 21.828ZM189.307 9.384V12.376C191.959 12.444 194.067 12.9087 195.631 13.77C197.217 14.6087 198.351 15.6967 199.031 17.034C199.733 18.3713 200.085 19.8333 200.085 21.42C200.085 22.44 199.903 23.4827 199.541 24.548C199.201 25.6133 198.611 26.5993 197.773 27.506C196.957 28.39 195.857 29.1153 194.475 29.682C193.092 30.2487 191.369 30.5547 189.307 30.6V34.34H184.683V30.6C182.597 30.5547 180.852 30.2487 179.447 29.682C178.064 29.1153 176.965 28.3787 176.149 27.472C175.333 26.5653 174.755 25.5907 174.415 24.548C174.075 23.4827 173.905 22.44 173.905 21.42C173.905 20.2413 174.097 19.1193 174.483 18.054C174.868 16.9887 175.48 16.0367 176.319 15.198C177.157 14.3593 178.268 13.6907 179.651 13.192C181.033 12.6933 182.711 12.4213 184.683 12.376V9.384H189.307ZM184.683 16.388C183.209 16.456 182.031 16.7167 181.147 17.17C180.285 17.6007 179.662 18.1787 179.277 18.904C178.914 19.6293 178.733 20.4567 178.733 21.386C178.733 22.406 178.937 23.3013 179.345 24.072C179.775 24.82 180.421 25.4207 181.283 25.874C182.167 26.3047 183.3 26.554 184.683 26.622V16.388ZM189.307 26.622C190.689 26.554 191.811 26.3047 192.673 25.874C193.557 25.4207 194.203 24.82 194.611 24.072C195.041 23.3013 195.257 22.406 195.257 21.386C195.257 20.4567 195.064 19.6293 194.679 18.904C194.316 18.1787 193.693 17.6007 192.809 17.17C191.947 16.7167 190.78 16.456 189.307 16.388V26.622ZM211.479 34V9.724H230.689V34H225.555V14.008H216.613V34H211.479ZM257.825 21.828C257.825 23.7093 257.587 25.4207 257.111 26.962C256.657 28.4807 255.955 29.7953 255.003 30.906C254.073 32.0167 252.872 32.8667 251.399 33.456C249.948 34.0453 248.237 34.34 246.265 34.34C244.293 34.34 242.57 34.0453 241.097 33.456C239.646 32.844 238.445 31.994 237.493 30.906C236.563 29.7953 235.861 28.4693 235.385 26.928C234.931 25.3867 234.705 23.6753 234.705 21.794C234.705 19.278 235.113 17.0907 235.929 15.232C236.767 13.3733 238.037 11.934 239.737 10.914C241.459 9.87133 243.647 9.35 246.299 9.35C248.928 9.35 251.093 9.87133 252.793 10.914C254.493 11.934 255.751 13.3847 256.567 15.266C257.405 17.1247 257.825 19.312 257.825 21.828ZM240.111 21.828C240.111 23.528 240.326 24.99 240.757 26.214C241.187 27.438 241.856 28.3787 242.763 29.036C243.669 29.6933 244.837 30.022 246.265 30.022C247.738 30.022 248.917 29.6933 249.801 29.036C250.707 28.3787 251.365 27.438 251.773 26.214C252.203 24.99 252.419 23.528 252.419 21.828C252.419 19.2667 251.943 17.2607 250.991 15.81C250.039 14.3593 248.475 13.634 246.299 13.634C244.848 13.634 243.669 13.9627 242.763 14.62C241.856 15.2773 241.187 16.218 240.757 17.442C240.326 18.666 240.111 20.128 240.111 21.828ZM289.535 34H284.401V23.528H274.779V34H269.645V9.724H274.779V19.244H284.401V9.724H289.535V34ZM308.597 34H294.623V9.724H308.597V13.94H299.757V19.278H307.985V23.494H299.757V29.75H308.597V34ZM320.177 9.724C322.33 9.724 324.132 9.928 325.583 10.336C327.056 10.7213 328.155 11.3673 328.881 12.274C329.629 13.158 330.003 14.3593 330.003 15.878C330.003 16.7847 329.855 17.612 329.561 18.36C329.266 19.108 328.835 19.72 328.269 20.196C327.725 20.672 327.056 20.978 326.263 21.114V21.284C327.079 21.4427 327.815 21.726 328.473 22.134C329.13 22.542 329.651 23.1313 330.037 23.902C330.422 24.6727 330.615 25.6927 330.615 26.962C330.615 28.4353 330.252 29.7047 329.527 30.77C328.824 31.8127 327.804 32.6173 326.467 33.184C325.129 33.728 323.543 34 321.707 34H312.629V9.724H320.177ZM320.755 19.346C322.251 19.346 323.282 19.108 323.849 18.632C324.438 18.156 324.733 17.4647 324.733 16.558C324.733 15.6287 324.393 14.96 323.713 14.552C323.033 14.144 321.956 13.94 320.483 13.94H317.763V19.346H320.755ZM317.763 23.426V29.75H321.129C322.67 29.75 323.747 29.4553 324.359 28.866C324.971 28.254 325.277 27.4493 325.277 26.452C325.277 25.84 325.141 25.3073 324.869 24.854C324.619 24.4007 324.177 24.0493 323.543 23.8C322.908 23.5507 322.047 23.426 320.959 23.426H317.763ZM348.426 34H334.452V9.724H348.426V13.94H339.586V19.278H347.814V23.494H339.586V29.75H348.426V34Z" fill="white"/>
<path d="M10.608 54.724C12.7613 54.724 14.5633 54.928 16.014 55.336C17.4873 55.7213 18.5867 56.3673 19.312 57.274C20.06 58.158 20.434 59.3593 20.434 60.878C20.434 61.7847 20.2867 62.612 19.992 63.36C19.6973 64.108 19.2667 64.72 18.7 65.196C18.156 65.672 17.4873 65.978 16.694 66.114V66.284C17.51 66.4427 18.2467 66.726 18.904 67.134C19.5613 67.542 20.0827 68.1313 20.468 68.902C20.8533 69.6727 21.046 70.6927 21.046 71.962C21.046 73.4353 20.6833 74.7047 19.958 75.77C19.2553 76.8127 18.2353 77.6173 16.898 78.184C15.5607 78.728 13.974 79 12.138 79H3.06V54.724H10.608ZM11.186 64.346C12.682 64.346 13.7133 64.108 14.28 63.632C14.8693 63.156 15.164 62.4647 15.164 61.558C15.164 60.6287 14.824 59.96 14.144 59.552C13.464 59.144 12.3873 58.94 10.914 58.94H8.194V64.346H11.186ZM8.194 68.426V74.75H11.56C13.1013 74.75 14.178 74.4553 14.79 73.866C15.402 73.254 15.708 72.4493 15.708 71.452C15.708 70.84 15.572 70.3073 15.3 69.854C15.0507 69.4007 14.6087 69.0493 13.974 68.8C13.3393 68.5507 12.478 68.426 11.39 68.426H8.194ZM32.6958 79V54.724H51.9058V79H46.7718V59.008H37.8298V79H32.6958ZM70.9838 79H57.0098V54.724H70.9838V58.94H62.1438V64.278H70.3718V68.494H62.1438V74.75H70.9838V79ZM84.3652 79H79.2312V59.008H72.6352V54.724H90.9612V59.008H84.3652V79ZM107.659 79H93.6846V54.724H107.659V58.94H98.8186V64.278H107.047V68.494H98.8186V74.75H107.659V79ZM119.442 54.724C122.57 54.724 124.848 55.404 126.276 56.764C127.727 58.1013 128.452 59.9487 128.452 62.306C128.452 63.3713 128.293 64.3913 127.976 65.366C127.659 66.318 127.126 67.1793 126.378 67.95C125.653 68.698 124.689 69.2873 123.488 69.718C122.287 70.1487 120.802 70.364 119.034 70.364H116.824V79H111.69V54.724H119.442ZM119.17 58.94H116.824V66.148H118.524C119.499 66.148 120.337 66.0233 121.04 65.774C121.743 65.5247 122.287 65.128 122.672 64.584C123.057 64.04 123.25 63.3373 123.25 62.476C123.25 61.2747 122.921 60.3907 122.264 59.824C121.607 59.2347 120.575 58.94 119.17 58.94ZM147.354 54.724V58.974H137.154V79H132.02V54.724H147.354ZM171.426 66.828C171.426 68.7093 171.188 70.4207 170.712 71.962C170.259 73.4807 169.556 74.7953 168.604 75.906C167.675 77.0167 166.473 77.8667 165 78.456C163.549 79.0453 161.838 79.34 159.866 79.34C157.894 79.34 156.171 79.0453 154.698 78.456C153.247 77.844 152.046 76.994 151.094 75.906C150.165 74.7953 149.462 73.4693 148.986 71.928C148.533 70.3867 148.306 68.6753 148.306 66.794C148.306 64.278 148.714 62.0907 149.53 60.232C150.369 58.3733 151.638 56.934 153.338 55.914C155.061 54.8713 157.248 54.35 159.9 54.35C162.529 54.35 164.694 54.8713 166.394 55.914C168.094 56.934 169.352 58.3847 170.168 60.266C171.007 62.1247 171.426 64.312 171.426 66.828ZM153.712 66.828C153.712 68.528 153.927 69.99 154.358 71.214C154.789 72.438 155.457 73.3787 156.364 74.036C157.271 74.6933 158.438 75.022 159.866 75.022C161.339 75.022 162.518 74.6933 163.402 74.036C164.309 73.3787 164.966 72.438 165.374 71.214C165.805 69.99 166.02 68.528 166.02 66.828C166.02 64.2667 165.544 62.2607 164.592 60.81C163.64 59.3593 162.076 58.634 159.9 58.634C158.449 58.634 157.271 58.9627 156.364 59.62C155.457 60.2773 154.789 61.218 154.358 62.442C153.927 63.666 153.712 65.128 153.712 66.828ZM189.307 54.384V57.376C191.959 57.444 194.067 57.9087 195.631 58.77C197.217 59.6087 198.351 60.6967 199.031 62.034C199.733 63.3713 200.085 64.8333 200.085 66.42C200.085 67.44 199.903 68.4827 199.541 69.548C199.201 70.6133 198.611 71.5993 197.773 72.506C196.957 73.39 195.857 74.1153 194.475 74.682C193.092 75.2487 191.369 75.5547 189.307 75.6V79.34H184.683V75.6C182.597 75.5547 180.852 75.2487 179.447 74.682C178.064 74.1153 176.965 73.3787 176.149 72.472C175.333 71.5653 174.755 70.5907 174.415 69.548C174.075 68.4827 173.905 67.44 173.905 66.42C173.905 65.2413 174.097 64.1193 174.483 63.054C174.868 61.9887 175.48 61.0367 176.319 60.198C177.157 59.3593 178.268 58.6907 179.651 58.192C181.033 57.6933 182.711 57.4213 184.683 57.376V54.384H189.307ZM184.683 61.388C183.209 61.456 182.031 61.7167 181.147 62.17C180.285 62.6007 179.662 63.1787 179.277 63.904C178.914 64.6293 178.733 65.4567 178.733 66.386C178.733 67.406 178.937 68.3013 179.345 69.072C179.775 69.82 180.421 70.4207 181.283 70.874C182.167 71.3047 183.3 71.554 184.683 71.622V61.388ZM189.307 71.622C190.689 71.554 191.811 71.3047 192.673 70.874C193.557 70.4207 194.203 69.82 194.611 69.072C195.041 68.3013 195.257 67.406 195.257 66.386C195.257 65.4567 195.064 64.6293 194.679 63.904C194.316 63.1787 193.693 62.6007 192.809 62.17C191.947 61.7167 190.78 61.456 189.307 61.388V71.622ZM211.479 79V54.724H230.689V79H225.555V59.008H216.613V79H211.479ZM257.825 66.828C257.825 68.7093 257.587 70.4207 257.111 71.962C256.657 73.4807 255.955 74.7953 255.003 75.906C254.073 77.0167 252.872 77.8667 251.399 78.456C249.948 79.0453 248.237 79.34 246.265 79.34C244.293 79.34 242.57 79.0453 241.097 78.456C239.646 77.844 238.445 76.994 237.493 75.906C236.563 74.7953 235.861 73.4693 235.385 71.928C234.931 70.3867 234.705 68.6753 234.705 66.794C234.705 64.278 235.113 62.0907 235.929 60.232C236.767 58.3733 238.037 56.934 239.737 55.914C241.459 54.8713 243.647 54.35 246.299 54.35C248.928 54.35 251.093 54.8713 252.793 55.914C254.493 56.934 255.751 58.3847 256.567 60.266C257.405 62.1247 257.825 64.312 257.825 66.828ZM240.111 66.828C240.111 68.528 240.326 69.99 240.757 71.214C241.187 72.438 241.856 73.3787 242.763 74.036C243.669 74.6933 244.837 75.022 246.265 75.022C247.738 75.022 248.917 74.6933 249.801 74.036C250.707 73.3787 251.365 72.438 251.773 71.214C252.203 69.99 252.419 68.528 252.419 66.828C252.419 64.2667 251.943 62.2607 250.991 60.81C250.039 59.3593 248.475 58.634 246.299 58.634C244.848 58.634 243.669 58.9627 242.763 59.62C241.856 60.2773 241.187 61.218 240.757 62.442C240.326 63.666 240.111 65.128 240.111 66.828ZM289.535 79H284.401V68.528H274.779V79H269.645V54.724H274.779V64.244H284.401V54.724H289.535V79ZM308.597 79H294.623V54.724H308.597V58.94H299.757V64.278H307.985V68.494H299.757V74.75H308.597V79ZM320.177 54.724C322.33 54.724 324.132 54.928 325.583 55.336C327.056 55.7213 328.155 56.3673 328.881 57.274C329.629 58.158 330.003 59.3593 330.003 60.878C330.003 61.7847 329.855 62.612 329.561 63.36C329.266 64.108 328.835 64.72 328.269 65.196C327.725 65.672 327.056 65.978 326.263 66.114V66.284C327.079 66.4427 327.815 66.726 328.473 67.134C329.13 67.542 329.651 68.1313 330.037 68.902C330.422 69.6727 330.615 70.6927 330.615 71.962C330.615 73.4353 330.252 74.7047 329.527 75.77C328.824 76.8127 327.804 77.6173 326.467 78.184C325.129 78.728 323.543 79 321.707 79H312.629V54.724H320.177ZM320.755 64.346C322.251 64.346 323.282 64.108 323.849 63.632C324.438 63.156 324.733 62.4647 324.733 61.558C324.733 60.6287 324.393 59.96 323.713 59.552C323.033 59.144 321.956 58.94 320.483 58.94H317.763V64.346H320.755ZM317.763 68.426V74.75H321.129C322.67 74.75 323.747 74.4553 324.359 73.866C324.971 73.254 325.277 72.4493 325.277 71.452C325.277 70.84 325.141 70.3073 324.869 69.854C324.619 69.4007 324.177 69.0493 323.543 68.8C322.908 68.5507 322.047 68.426 320.959 68.426H317.763ZM348.426 79H334.452V54.724H348.426V58.94H339.586V64.278H347.814V68.494H339.586V74.75H348.426V79Z" fill="white"/>
<path d="M10.608 99.724C12.7613 99.724 14.5633 99.928 16.014 100.336C17.4873 100.721 18.5867 101.367 19.312 102.274C20.06 103.158 20.434 104.359 20.434 105.878C20.434 106.785 20.2867 107.612 19.992 108.36C19.6973 109.108 19.2667 109.72 18.7 110.196C18.156 110.672 17.4873 110.978 16.694 111.114V111.284C17.51 111.443 18.2467 111.726 18.904 112.134C19.5613 112.542 20.0827 113.131 20.468 113.902C20.8533 114.673 21.046 115.693 21.046 116.962C21.046 118.435 20.6833 119.705 19.958 120.77C19.2553 121.813 18.2353 122.617 16.898 123.184C15.5607 123.728 13.974 124 12.138 124H3.06V99.724H10.608ZM11.186 109.346C12.682 109.346 13.7133 109.108 14.28 108.632C14.8693 108.156 15.164 107.465 15.164 106.558C15.164 105.629 14.824 104.96 14.144 104.552C13.464 104.144 12.3873 103.94 10.914 103.94H8.194V109.346H11.186ZM8.194 113.426V119.75H11.56C13.1013 119.75 14.178 119.455 14.79 118.866C15.402 118.254 15.708 117.449 15.708 116.452C15.708 115.84 15.572 115.307 15.3 114.854C15.0507 114.401 14.6087 114.049 13.974 113.8C13.3393 113.551 12.478 113.426 11.39 113.426H8.194ZM32.6958 124V99.724H51.9058V124H46.7718V104.008H37.8298V124H32.6958ZM70.9838 124H57.0098V99.724H70.9838V103.94H62.1438V109.278H70.3718V113.494H62.1438V119.75H70.9838V124ZM84.3652 124H79.2312V104.008H72.6352V99.724H90.9612V104.008H84.3652V124ZM107.659 124H93.6846V99.724H107.659V103.94H98.8186V109.278H107.047V113.494H98.8186V119.75H107.659V124ZM119.442 99.724C122.57 99.724 124.848 100.404 126.276 101.764C127.727 103.101 128.452 104.949 128.452 107.306C128.452 108.371 128.293 109.391 127.976 110.366C127.659 111.318 127.126 112.179 126.378 112.95C125.653 113.698 124.689 114.287 123.488 114.718C122.287 115.149 120.802 115.364 119.034 115.364H116.824V124H111.69V99.724H119.442ZM119.17 103.94H116.824V111.148H118.524C119.499 111.148 120.337 111.023 121.04 110.774C121.743 110.525 122.287 110.128 122.672 109.584C123.057 109.04 123.25 108.337 123.25 107.476C123.25 106.275 122.921 105.391 122.264 104.824C121.607 104.235 120.575 103.94 119.17 103.94ZM147.354 99.724V103.974H137.154V124H132.02V99.724H147.354ZM171.426 111.828C171.426 113.709 171.188 115.421 170.712 116.962C170.259 118.481 169.556 119.795 168.604 120.906C167.675 122.017 166.473 122.867 165 123.456C163.549 124.045 161.838 124.34 159.866 124.34C157.894 124.34 156.171 124.045 154.698 123.456C153.247 122.844 152.046 121.994 151.094 120.906C150.165 119.795 149.462 118.469 148.986 116.928C148.533 115.387 148.306 113.675 148.306 111.794C148.306 109.278 148.714 107.091 149.53 105.232C150.369 103.373 151.638 101.934 153.338 100.914C155.061 99.8713 157.248 99.35 159.9 99.35C162.529 99.35 164.694 99.8713 166.394 100.914C168.094 101.934 169.352 103.385 170.168 105.266C171.007 107.125 171.426 109.312 171.426 111.828ZM153.712 111.828C153.712 113.528 153.927 114.99 154.358 116.214C154.789 117.438 155.457 118.379 156.364 119.036C157.271 119.693 158.438 120.022 159.866 120.022C161.339 120.022 162.518 119.693 163.402 119.036C164.309 118.379 164.966 117.438 165.374 116.214C165.805 114.99 166.02 113.528 166.02 111.828C166.02 109.267 165.544 107.261 164.592 105.81C163.64 104.359 162.076 103.634 159.9 103.634C158.449 103.634 157.271 103.963 156.364 104.62C155.457 105.277 154.789 106.218 154.358 107.442C153.927 108.666 153.712 110.128 153.712 111.828ZM189.307 99.384V102.376C191.959 102.444 194.067 102.909 195.631 103.77C197.217 104.609 198.351 105.697 199.031 107.034C199.733 108.371 200.085 109.833 200.085 111.42C200.085 112.44 199.903 113.483 199.541 114.548C199.201 115.613 198.611 116.599 197.773 117.506C196.957 118.39 195.857 119.115 194.475 119.682C193.092 120.249 191.369 120.555 189.307 120.6V124.34H184.683V120.6C182.597 120.555 180.852 120.249 179.447 119.682C178.064 119.115 176.965 118.379 176.149 117.472C175.333 116.565 174.755 115.591 174.415 114.548C174.075 113.483 173.905 112.44 173.905 111.42C173.905 110.241 174.097 109.119 174.483 108.054C174.868 106.989 175.48 106.037 176.319 105.198C177.157 104.359 178.268 103.691 179.651 103.192C181.033 102.693 182.711 102.421 184.683 102.376V99.384H189.307ZM184.683 106.388C183.209 106.456 182.031 106.717 181.147 107.17C180.285 107.601 179.662 108.179 179.277 108.904C178.914 109.629 178.733 110.457 178.733 111.386C178.733 112.406 178.937 113.301 179.345 114.072C179.775 114.82 180.421 115.421 181.283 115.874C182.167 116.305 183.3 116.554 184.683 116.622V106.388ZM189.307 116.622C190.689 116.554 191.811 116.305 192.673 115.874C193.557 115.421 194.203 114.82 194.611 114.072C195.041 113.301 195.257 112.406 195.257 111.386C195.257 110.457 195.064 109.629 194.679 108.904C194.316 108.179 193.693 107.601 192.809 107.17C191.947 106.717 190.78 106.456 189.307 106.388V116.622ZM211.479 124V99.724H230.689V124H225.555V104.008H216.613V124H211.479ZM257.825 111.828C257.825 113.709 257.587 115.421 257.111 116.962C256.657 118.481 255.955 119.795 255.003 120.906C254.073 122.017 252.872 122.867 251.399 123.456C249.948 124.045 248.237 124.34 246.265 124.34C244.293 124.34 242.57 124.045 241.097 123.456C239.646 122.844 238.445 121.994 237.493 120.906C236.563 119.795 235.861 118.469 235.385 116.928C234.931 115.387 234.705 113.675 234.705 111.794C234.705 109.278 235.113 107.091 235.929 105.232C236.767 103.373 238.037 101.934 239.737 100.914C241.459 99.8713 243.647 99.35 246.299 99.35C248.928 99.35 251.093 99.8713 252.793 100.914C254.493 101.934 255.751 103.385 256.567 105.266C257.405 107.125 257.825 109.312 257.825 111.828ZM240.111 111.828C240.111 113.528 240.326 114.99 240.757 116.214C241.187 117.438 241.856 118.379 242.763 119.036C243.669 119.693 244.837 120.022 246.265 120.022C247.738 120.022 248.917 119.693 249.801 119.036C250.707 118.379 251.365 117.438 251.773 116.214C252.203 114.99 252.419 113.528 252.419 111.828C252.419 109.267 251.943 107.261 250.991 105.81C250.039 104.359 248.475 103.634 246.299 103.634C244.848 103.634 243.669 103.963 242.763 104.62C241.856 105.277 241.187 106.218 240.757 107.442C240.326 108.666 240.111 110.128 240.111 111.828ZM289.535 124H284.401V113.528H274.779V124H269.645V99.724H274.779V109.244H284.401V99.724H289.535V124ZM308.597 124H294.623V99.724H308.597V103.94H299.757V109.278H307.985V113.494H299.757V119.75H308.597V124ZM320.177 99.724C322.33 99.724 324.132 99.928 325.583 100.336C327.056 100.721 328.155 101.367 328.881 102.274C329.629 103.158 330.003 104.359 330.003 105.878C330.003 106.785 329.855 107.612 329.561 108.36C329.266 109.108 328.835 109.72 328.269 110.196C327.725 110.672 327.056 110.978 326.263 111.114V111.284C327.079 111.443 327.815 111.726 328.473 112.134C329.13 112.542 329.651 113.131 330.037 113.902C330.422 114.673 330.615 115.693 330.615 116.962C330.615 118.435 330.252 119.705 329.527 120.77C328.824 121.813 327.804 122.617 326.467 123.184C325.129 123.728 323.543 124 321.707 124H312.629V99.724H320.177ZM320.755 109.346C322.251 109.346 323.282 109.108 323.849 108.632C324.438 108.156 324.733 107.465 324.733 106.558C324.733 105.629 324.393 104.96 323.713 104.552C323.033 104.144 321.956 103.94 320.483 103.94H317.763V109.346H320.755ZM317.763 113.426V119.75H321.129C322.67 119.75 323.747 119.455 324.359 118.866C324.971 118.254 325.277 117.449 325.277 116.452C325.277 115.84 325.141 115.307 324.869 114.854C324.619 114.401 324.177 114.049 323.543 113.8C322.908 113.551 322.047 113.426 320.959 113.426H317.763ZM348.426 124H334.452V99.724H348.426V103.94H339.586V109.278H347.814V113.494H339.586V119.75H348.426V124Z" fill="white"/>
<path d="M10.608 144.724C12.7613 144.724 14.5633 144.928 16.014 145.336C17.4873 145.721 18.5867 146.367 19.312 147.274C20.06 148.158 20.434 149.359 20.434 150.878C20.434 151.785 20.2867 152.612 19.992 153.36C19.6973 154.108 19.2667 154.72 18.7 155.196C18.156 155.672 17.4873 155.978 16.694 156.114V156.284C17.51 156.443 18.2467 156.726 18.904 157.134C19.5613 157.542 20.0827 158.131 20.468 158.902C20.8533 159.673 21.046 160.693 21.046 161.962C21.046 163.435 20.6833 164.705 19.958 165.77C19.2553 166.813 18.2353 167.617 16.898 168.184C15.5607 168.728 13.974 169 12.138 169H3.06V144.724H10.608ZM11.186 154.346C12.682 154.346 13.7133 154.108 14.28 153.632C14.8693 153.156 15.164 152.465 15.164 151.558C15.164 150.629 14.824 149.96 14.144 149.552C13.464 149.144 12.3873 148.94 10.914 148.94H8.194V154.346H11.186ZM8.194 158.426V164.75H11.56C13.1013 164.75 14.178 164.455 14.79 163.866C15.402 163.254 15.708 162.449 15.708 161.452C15.708 160.84 15.572 160.307 15.3 159.854C15.0507 159.401 14.6087 159.049 13.974 158.8C13.3393 158.551 12.478 158.426 11.39 158.426H8.194ZM32.6958 169V144.724H51.9058V169H46.7718V149.008H37.8298V169H32.6958ZM70.9838 169H57.0098V144.724H70.9838V148.94H62.1438V154.278H70.3718V158.494H62.1438V164.75H70.9838V169ZM84.3652 169H79.2312V149.008H72.6352V144.724H90.9612V149.008H84.3652V169ZM107.659 169H93.6846V144.724H107.659V148.94H98.8186V154.278H107.047V158.494H98.8186V164.75H107.659V169ZM119.442 144.724C122.57 144.724 124.848 145.404 126.276 146.764C127.727 148.101 128.452 149.949 128.452 152.306C128.452 153.371 128.293 154.391 127.976 155.366C127.659 156.318 127.126 157.179 126.378 157.95C125.653 158.698 124.689 159.287 123.488 159.718C122.287 160.149 120.802 160.364 119.034 160.364H116.824V169H111.69V144.724H119.442ZM119.17 148.94H116.824V156.148H118.524C119.499 156.148 120.337 156.023 121.04 155.774C121.743 155.525 122.287 155.128 122.672 154.584C123.057 154.04 123.25 153.337 123.25 152.476C123.25 151.275 122.921 150.391 122.264 149.824C121.607 149.235 120.575 148.94 119.17 148.94ZM147.354 144.724V148.974H137.154V169H132.02V144.724H147.354ZM171.426 156.828C171.426 158.709 171.188 160.421 170.712 161.962C170.259 163.481 169.556 164.795 168.604 165.906C167.675 167.017 166.473 167.867 165 168.456C163.549 169.045 161.838 169.34 159.866 169.34C157.894 169.34 156.171 169.045 154.698 168.456C153.247 167.844 152.046 166.994 151.094 165.906C150.165 164.795 149.462 163.469 148.986 161.928C148.533 160.387 148.306 158.675 148.306 156.794C148.306 154.278 148.714 152.091 149.53 150.232C150.369 148.373 151.638 146.934 153.338 145.914C155.061 144.871 157.248 144.35 159.9 144.35C162.529 144.35 164.694 144.871 166.394 145.914C168.094 146.934 169.352 148.385 170.168 150.266C171.007 152.125 171.426 154.312 171.426 156.828ZM153.712 156.828C153.712 158.528 153.927 159.99 154.358 161.214C154.789 162.438 155.457 163.379 156.364 164.036C157.271 164.693 158.438 165.022 159.866 165.022C161.339 165.022 162.518 164.693 163.402 164.036C164.309 163.379 164.966 162.438 165.374 161.214C165.805 159.99 166.02 158.528 166.02 156.828C166.02 154.267 165.544 152.261 164.592 150.81C163.64 149.359 162.076 148.634 159.9 148.634C158.449 148.634 157.271 148.963 156.364 149.62C155.457 150.277 154.789 151.218 154.358 152.442C153.927 153.666 153.712 155.128 153.712 156.828ZM189.307 144.384V147.376C191.959 147.444 194.067 147.909 195.631 148.77C197.217 149.609 198.351 150.697 199.031 152.034C199.733 153.371 200.085 154.833 200.085 156.42C200.085 157.44 199.903 158.483 199.541 159.548C199.201 160.613 198.611 161.599 197.773 162.506C196.957 163.39 195.857 164.115 194.475 164.682C193.092 165.249 191.369 165.555 189.307 165.6V169.34H184.683V165.6C182.597 165.555 180.852 165.249 179.447 164.682C178.064 164.115 176.965 163.379 176.149 162.472C175.333 161.565 174.755 160.591 174.415 159.548C174.075 158.483 173.905 157.44 173.905 156.42C173.905 155.241 174.097 154.119 174.483 153.054C174.868 151.989 175.48 151.037 176.319 150.198C177.157 149.359 178.268 148.691 179.651 148.192C181.033 147.693 182.711 147.421 184.683 147.376V144.384H189.307ZM184.683 151.388C183.209 151.456 182.031 151.717 181.147 152.17C180.285 152.601 179.662 153.179 179.277 153.904C178.914 154.629 178.733 155.457 178.733 156.386C178.733 157.406 178.937 158.301 179.345 159.072C179.775 159.82 180.421 160.421 181.283 160.874C182.167 161.305 183.3 161.554 184.683 161.622V151.388ZM189.307 161.622C190.689 161.554 191.811 161.305 192.673 160.874C193.557 160.421 194.203 159.82 194.611 159.072C195.041 158.301 195.257 157.406 195.257 156.386C195.257 155.457 195.064 154.629 194.679 153.904C194.316 153.179 193.693 152.601 192.809 152.17C191.947 151.717 190.78 151.456 189.307 151.388V161.622ZM211.479 169V144.724H230.689V169H225.555V149.008H216.613V169H211.479ZM257.825 156.828C257.825 158.709 257.587 160.421 257.111 161.962C256.657 163.481 255.955 164.795 255.003 165.906C254.073 167.017 252.872 167.867 251.399 168.456C249.948 169.045 248.237 169.34 246.265 169.34C244.293 169.34 242.57 169.045 241.097 168.456C239.646 167.844 238.445 166.994 237.493 165.906C236.563 164.795 235.861 163.469 235.385 161.928C234.931 160.387 234.705 158.675 234.705 156.794C234.705 154.278 235.113 152.091 235.929 150.232C236.767 148.373 238.037 146.934 239.737 145.914C241.459 144.871 243.647 144.35 246.299 144.35C248.928 144.35 251.093 144.871 252.793 145.914C254.493 146.934 255.751 148.385 256.567 150.266C257.405 152.125 257.825 154.312 257.825 156.828ZM240.111 156.828C240.111 158.528 240.326 159.99 240.757 161.214C241.187 162.438 241.856 163.379 242.763 164.036C243.669 164.693 244.837 165.022 246.265 165.022C247.738 165.022 248.917 164.693 249.801 164.036C250.707 163.379 251.365 162.438 251.773 161.214C252.203 159.99 252.419 158.528 252.419 156.828C252.419 154.267 251.943 152.261 250.991 150.81C250.039 149.359 248.475 148.634 246.299 148.634C244.848 148.634 243.669 148.963 242.763 149.62C241.856 150.277 241.187 151.218 240.757 152.442C240.326 153.666 240.111 155.128 240.111 156.828ZM289.535 169H284.401V158.528H274.779V169H269.645V144.724H274.779V154.244H284.401V144.724H289.535V169ZM308.597 169H294.623V144.724H308.597V148.94H299.757V154.278H307.985V158.494H299.757V164.75H308.597V169ZM320.177 144.724C322.33 144.724 324.132 144.928 325.583 145.336C327.056 145.721 328.155 146.367 328.881 147.274C329.629 148.158 330.003 149.359 330.003 150.878C330.003 151.785 329.855 152.612 329.561 153.36C329.266 154.108 328.835 154.72 328.269 155.196C327.725 155.672 327.056 155.978 326.263 156.114V156.284C327.079 156.443 327.815 156.726 328.473 157.134C329.13 157.542 329.651 158.131 330.037 158.902C330.422 159.673 330.615 160.693 330.615 161.962C330.615 163.435 330.252 164.705 329.527 165.77C328.824 166.813 327.804 167.617 326.467 168.184C325.129 168.728 323.543 169 321.707 169H312.629V144.724H320.177ZM320.755 154.346C322.251 154.346 323.282 154.108 323.849 153.632C324.438 153.156 324.733 152.465 324.733 151.558C324.733 150.629 324.393 149.96 323.713 149.552C323.033 149.144 321.956 148.94 320.483 148.94H317.763V154.346H320.755ZM317.763 158.426V164.75H321.129C322.67 164.75 323.747 164.455 324.359 163.866C324.971 163.254 325.277 162.449 325.277 161.452C325.277 160.84 325.141 160.307 324.869 159.854C324.619 159.401 324.177 159.049 323.543 158.8C322.908 158.551 322.047 158.426 320.959 158.426H317.763ZM348.426 169H334.452V144.724H348.426V148.94H339.586V154.278H347.814V158.494H339.586V164.75H348.426V169Z" fill="white"/>
<path d="M10.608 189.724C12.7613 189.724 14.5633 189.928 16.014 190.336C17.4873 190.721 18.5867 191.367 19.312 192.274C20.06 193.158 20.434 194.359 20.434 195.878C20.434 196.785 20.2867 197.612 19.992 198.36C19.6973 199.108 19.2667 199.72 18.7 200.196C18.156 200.672 17.4873 200.978 16.694 201.114V201.284C17.51 201.443 18.2467 201.726 18.904 202.134C19.5613 202.542 20.0827 203.131 20.468 203.902C20.8533 204.673 21.046 205.693 21.046 206.962C21.046 208.435 20.6833 209.705 19.958 210.77C19.2553 211.813 18.2353 212.617 16.898 213.184C15.5607 213.728 13.974 214 12.138 214H3.06V189.724H10.608ZM11.186 199.346C12.682 199.346 13.7133 199.108 14.28 198.632C14.8693 198.156 15.164 197.465 15.164 196.558C15.164 195.629 14.824 194.96 14.144 194.552C13.464 194.144 12.3873 193.94 10.914 193.94H8.194V199.346H11.186ZM8.194 203.426V209.75H11.56C13.1013 209.75 14.178 209.455 14.79 208.866C15.402 208.254 15.708 207.449 15.708 206.452C15.708 205.84 15.572 205.307 15.3 204.854C15.0507 204.401 14.6087 204.049 13.974 203.8C13.3393 203.551 12.478 203.426 11.39 203.426H8.194ZM32.6958 214V189.724H51.9058V214H46.7718V194.008H37.8298V214H32.6958ZM70.9838 214H57.0098V189.724H70.9838V193.94H62.1438V199.278H70.3718V203.494H62.1438V209.75H70.9838V214ZM84.3652 214H79.2312V194.008H72.6352V189.724H90.9612V194.008H84.3652V214ZM107.659 214H93.6846V189.724H107.659V193.94H98.8186V199.278H107.047V203.494H98.8186V209.75H107.659V214ZM119.442 189.724C122.57 189.724 124.848 190.404 126.276 191.764C127.727 193.101 128.452 194.949 128.452 197.306C128.452 198.371 128.293 199.391 127.976 200.366C127.659 201.318 127.126 202.179 126.378 202.95C125.653 203.698 124.689 204.287 123.488 204.718C122.287 205.149 120.802 205.364 119.034 205.364H116.824V214H111.69V189.724H119.442ZM119.17 193.94H116.824V201.148H118.524C119.499 201.148 120.337 201.023 121.04 200.774C121.743 200.525 122.287 200.128 122.672 199.584C123.057 199.04 123.25 198.337 123.25 197.476C123.25 196.275 122.921 195.391 122.264 194.824C121.607 194.235 120.575 193.94 119.17 193.94ZM147.354 189.724V193.974H137.154V214H132.02V189.724H147.354ZM171.426 201.828C171.426 203.709 171.188 205.421 170.712 206.962C170.259 208.481 169.556 209.795 168.604 210.906C167.675 212.017 166.473 212.867 165 213.456C163.549 214.045 161.838 214.34 159.866 214.34C157.894 214.34 156.171 214.045 154.698 213.456C153.247 212.844 152.046 211.994 151.094 210.906C150.165 209.795 149.462 208.469 148.986 206.928C148.533 205.387 148.306 203.675 148.306 201.794C148.306 199.278 148.714 197.091 149.53 195.232C150.369 193.373 151.638 191.934 153.338 190.914C155.061 189.871 157.248 189.35 159.9 189.35C162.529 189.35 164.694 189.871 166.394 190.914C168.094 191.934 169.352 193.385 170.168 195.266C171.007 197.125 171.426 199.312 171.426 201.828ZM153.712 201.828C153.712 203.528 153.927 204.99 154.358 206.214C154.789 207.438 155.457 208.379 156.364 209.036C157.271 209.693 158.438 210.022 159.866 210.022C161.339 210.022 162.518 209.693 163.402 209.036C164.309 208.379 164.966 207.438 165.374 206.214C165.805 204.99 166.02 203.528 166.02 201.828C166.02 199.267 165.544 197.261 164.592 195.81C163.64 194.359 162.076 193.634 159.9 193.634C158.449 193.634 157.271 193.963 156.364 194.62C155.457 195.277 154.789 196.218 154.358 197.442C153.927 198.666 153.712 200.128 153.712 201.828ZM189.307 189.384V192.376C191.959 192.444 194.067 192.909 195.631 193.77C197.217 194.609 198.351 195.697 199.031 197.034C199.733 198.371 200.085 199.833 200.085 201.42C200.085 202.44 199.903 203.483 199.541 204.548C199.201 205.613 198.611 206.599 197.773 207.506C196.957 208.39 195.857 209.115 194.475 209.682C193.092 210.249 191.369 210.555 189.307 210.6V214.34H184.683V210.6C182.597 210.555 180.852 210.249 179.447 209.682C178.064 209.115 176.965 208.379 176.149 207.472C175.333 206.565 174.755 205.591 174.415 204.548C174.075 203.483 173.905 202.44 173.905 201.42C173.905 200.241 174.097 199.119 174.483 198.054C174.868 196.989 175.48 196.037 176.319 195.198C177.157 194.359 178.268 193.691 179.651 193.192C181.033 192.693 182.711 192.421 184.683 192.376V189.384H189.307ZM184.683 196.388C183.209 196.456 182.031 196.717 181.147 197.17C180.285 197.601 179.662 198.179 179.277 198.904C178.914 199.629 178.733 200.457 178.733 201.386C178.733 202.406 178.937 203.301 179.345 204.072C179.775 204.82 180.421 205.421 181.283 205.874C182.167 206.305 183.3 206.554 184.683 206.622V196.388ZM189.307 206.622C190.689 206.554 191.811 206.305 192.673 205.874C193.557 205.421 194.203 204.82 194.611 204.072C195.041 203.301 195.257 202.406 195.257 201.386C195.257 200.457 195.064 199.629 194.679 198.904C194.316 198.179 193.693 197.601 192.809 197.17C191.947 196.717 190.78 196.456 189.307 196.388V206.622ZM211.479 214V189.724H230.689V214H225.555V194.008H216.613V214H211.479ZM257.825 201.828C257.825 203.709 257.587 205.421 257.111 206.962C256.657 208.481 255.955 209.795 255.003 210.906C254.073 212.017 252.872 212.867 251.399 213.456C249.948 214.045 248.237 214.34 246.265 214.34C244.293 214.34 242.57 214.045 241.097 213.456C239.646 212.844 238.445 211.994 237.493 210.906C236.563 209.795 235.861 208.469 235.385 206.928C234.931 205.387 234.705 203.675 234.705 201.794C234.705 199.278 235.113 197.091 235.929 195.232C236.767 193.373 238.037 191.934 239.737 190.914C241.459 189.871 243.647 189.35 246.299 189.35C248.928 189.35 251.093 189.871 252.793 190.914C254.493 191.934 255.751 193.385 256.567 195.266C257.405 197.125 257.825 199.312 257.825 201.828ZM240.111 201.828C240.111 203.528 240.326 204.99 240.757 206.214C241.187 207.438 241.856 208.379 242.763 209.036C243.669 209.693 244.837 210.022 246.265 210.022C247.738 210.022 248.917 209.693 249.801 209.036C250.707 208.379 251.365 207.438 251.773 206.214C252.203 204.99 252.419 203.528 252.419 201.828C252.419 199.267 251.943 197.261 250.991 195.81C250.039 194.359 248.475 193.634 246.299 193.634C244.848 193.634 243.669 193.963 242.763 194.62C241.856 195.277 241.187 196.218 240.757 197.442C240.326 198.666 240.111 200.128 240.111 201.828ZM289.535 214H284.401V203.528H274.779V214H269.645V189.724H274.779V199.244H284.401V189.724H289.535V214ZM308.597 214H294.623V189.724H308.597V193.94H299.757V199.278H307.985V203.494H299.757V209.75H308.597V214ZM320.177 189.724C322.33 189.724 324.132 189.928 325.583 190.336C327.056 190.721 328.155 191.367 328.881 192.274C329.629 193.158 330.003 194.359 330.003 195.878C330.003 196.785 329.855 197.612 329.561 198.36C329.266 199.108 328.835 199.72 328.269 200.196C327.725 200.672 327.056 200.978 326.263 201.114V201.284C327.079 201.443 327.815 201.726 328.473 202.134C329.13 202.542 329.651 203.131 330.037 203.902C330.422 204.673 330.615 205.693 330.615 206.962C330.615 208.435 330.252 209.705 329.527 210.77C328.824 211.813 327.804 212.617 326.467 213.184C325.129 213.728 323.543 214 321.707 214H312.629V189.724H320.177ZM320.755 199.346C322.251 199.346 323.282 199.108 323.849 198.632C324.438 198.156 324.733 197.465 324.733 196.558C324.733 195.629 324.393 194.96 323.713 194.552C323.033 194.144 321.956 193.94 320.483 193.94H317.763V199.346H320.755ZM317.763 203.426V209.75H321.129C322.67 209.75 323.747 209.455 324.359 208.866C324.971 208.254 325.277 207.449 325.277 206.452C325.277 205.84 325.141 205.307 324.869 204.854C324.619 204.401 324.177 204.049 323.543 203.8C322.908 203.551 322.047 203.426 320.959 203.426H317.763ZM348.426 214H334.452V189.724H348.426V193.94H339.586V199.278H347.814V203.494H339.586V209.75H348.426V214Z" fill="white"/>
</svg>
