<svg width="1805" height="738" viewBox="0 0 1805 738" fill="none" xmlns="http://www.w3.org/2000/svg">
<mask id="mask0_16_2040" style="mask-type:luminance" maskUnits="userSpaceOnUse" x="-93" y="0" width="1898" height="738">
<path d="M-92.9998 0H1804.66V738H-92.9998V0Z" fill="url(#paint0_linear_16_2040)"></path>
</mask>
<g mask="url(#mask0_16_2040)">
<path d="M264.211 -129.685C270.974 -123.383 273.19 -114.161 270.689 -102.791C270.35 -101.244 269.751 -99.7521 269.399 -98.2056C265.185 -79.8004 268.707 -75.6122 287.384 -76.6817C289.92 -76.829 292.488 -76.9825 294.995 -76.7296C310.82 -75.1222 314.88 -68.6542 309.536 -53.6272C308.047 -49.4453 306.641 -45.1898 304.682 -41.2225C295.168 -21.9336 312.581 -2.32452 328.428 -0.973267C334.444 -0.460938 340.493 -0.227173 346.461 0.621399C350.621 1.21057 354.665 2.62262 359.916 3.96106C357.556 8.97223 355.917 12.3279 354.383 15.7252C350.115 25.1776 351.946 30.9188 361.991 32.8976C375.958 35.6514 390.275 36.6312 404.447 38.3314C407.268 38.6708 410.108 38.8214 413.88 39.1416C412.311 45.3119 410.985 51.0211 409.387 56.6501C407.838 62.1192 406.009 67.5114 403.505 75.478C381.911 70.4604 360.144 66.4803 339.071 60.1724C322.043 55.0716 322.443 54.0662 314.544 67.1624C308.726 76.8101 298.009 78.2766 287.695 78.9521C260.843 80.7037 235.31 75.8207 210.869 64.303C202.057 60.1532 192.595 56.8455 183.072 54.8891C171.283 52.4684 163.662 58.2448 162.48 70.0443C160.834 86.4897 151.238 96.4704 137.575 103.604C116.967 114.37 94.5815 117.889 71.9144 116.048C51.143 114.357 30.1922 111.353 10.0739 106.057C-14.0597 99.7076 -37.7289 96.416 -62.2083 102.436C-64.6611 103.041 -67.3764 103.749 -69.7363 103.262C-73.2009 102.554 -78.0775 101.674 -79.3519 99.2786C-80.6839 96.7618 -79.3583 91.8275 -77.5972 88.9233C-75.1925 84.9528 -71.7055 81.3057 -67.9271 78.5616C-54.5715 68.8595 -40.6908 59.8746 -27.4056 50.0829C-16.9542 42.3756 -6.19553 34.7548 2.84055 25.5394C17.3585 10.7429 16.3979 -5.96191 1.87676 -20.8673C1.43169 -21.322 0.980232 -21.7703 0.528748 -22.2155C-15.6926 -38.344 -15.318 -41.7605 4.46404 -54.5205C17.5379 -62.9578 31.0855 -70.7098 43.7655 -79.6883C62.2892 -92.8069 65.648 -105.644 57.5213 -126.838C57.1467 -127.818 56.7881 -128.766 56.4519 -129.685H46.4391C47.6047 -127.001 48.7606 -124.312 49.8493 -121.596C54.6811 -109.525 50.8868 -95.5286 40.4162 -87.8278C32.6674 -82.1282 24.0251 -77.6422 16.0393 -72.2404C6.28915 -65.6443 -3.81644 -59.3811 -12.7565 -51.8116C-20.4541 -45.2987 -21.8278 -33.5505 -15.4494 -25.7408C-11.1683 -20.4959 -5.81448 -16.1572 -1.31245 -11.082C5.63592 -3.25946 5.86968 8.28064 -0.81292 16.3305C-7.42188 24.2907 -15.523 31.2711 -23.8738 37.4573C-34.0594 45.0077 -45.8076 50.4991 -55.7723 58.296C-66.9281 67.0215 -77.9814 76.3842 -86.9695 87.223C-95.4388 97.4342 -88.1414 111.049 -74.7987 111.863C-68.1993 112.263 -61.3566 111.814 -54.8918 110.463C-33.7681 106.054 -13.5537 108.696 7.15372 114.341C26.6252 119.647 46.8522 123.447 66.9608 124.85C95.129 126.816 122.907 123.172 147.741 107.722C159.294 100.534 167.507 90.9854 169.547 76.9062C171.462 63.6755 176.473 60.6591 189.137 64.7449C192.752 65.9105 196.133 67.8284 199.764 68.9459C220.325 75.2955 240.558 83.8001 261.611 87.159C285.825 91.0238 311.188 91.6161 326.459 67.9565C352.392 73.5216 377.358 78.8818 402.247 84.2291C395.968 112.263 389.932 140.2 383.208 167.965C382.375 171.398 378.402 175.47 374.985 176.655C351.895 184.651 328.802 192.838 305.235 199.197C285.77 204.449 269.828 212.473 263.305 233.052C262.831 234.541 262.149 236.225 261.025 237.193C257.199 240.481 253.568 245.121 249.082 246.312C231.602 250.952 213.796 254.349 196.181 258.518C193.37 259.184 190.011 260.798 188.465 263.046C177.37 279.216 182.189 289.347 201.381 290.986C201.91 291.034 202.396 291.54 204.142 292.546C199.114 300.247 194.651 308.3 188.929 315.331C186.105 318.802 181.026 322.36 176.87 322.478C162.727 322.898 154.459 329.724 150.06 342.587C147.799 349.189 145.125 355.651 142.631 362.174C139.98 369.119 137.316 376.061 133.845 385.116C66.4613 334.143 -4.75459 295.962 -89.1212 287.054V295.69C-5.17405 311.595 95.43 355.801 118.247 386.835C105.17 390.86 102.196 402.471 99.4357 413.399C89.09 454.407 93.2815 494.116 111.619 532.28C113.163 535.502 114.584 538.777 116.458 542.895C109.067 542.895 103.352 542.892 97.6394 542.895C38.1492 542.94 -21.3379 542.962 -80.8249 543.058C-81.4172 543.062 -82.0384 543.036 -82.6692 543.01C-86.9695 542.831 -91.6412 542.652 -88.4008 551.108C-84.7441 551.108 -80.9786 551.099 -77.2162 551.108C-14.2262 551.233 48.7607 551.291 111.744 551.637C115.731 551.659 121.373 552.674 123.403 555.364C133.643 568.953 142.941 583.25 153.085 598.047H-89.1117V605.994C-65.0581 605.994 -41.5714 605.997 -18.0846 605.994C594.288 605.962 794.093 605.93 1406.47 605.895C1445.23 608.315 1453.42 598.392 1439.82 598.392C1439.82 586.142 1439.13 575.399 1440.04 564.794C1440.79 556.091 1452.25 546.709 1452.25 546.709C1452.25 544.602 1473.95 515.098 1484.35 502.524C1525.68 452.534 1573.46 409.112 1624.16 369.039C1673.26 330.23 1723.59 292.984 1773.56 255.287C1782.67 248.419 1792.65 242.726 1802.22 236.469C1802.1 235.111 1802.08 234.817 1801.96 233.459C1795.56 230.584 1789.34 227.231 1782.75 224.929C1767.92 219.751 1767.84 219.966 1769.65 203.885C1773.12 203.488 1776.59 203.085 1780.06 202.681C1780.39 201.141 1780.39 201.17 1780.72 199.63C1777.31 197.452 1774.14 194.548 1770.42 193.344C1756.55 188.868 1742.63 184.327 1728.42 181.154C1721.45 179.598 1719.03 177.155 1719.05 170.088L1710.17 170.853C1710.17 172.912 1709.64 174.965 1709.3 177.379C1656.26 171.436 1603.87 174.404 1551.48 177.789C1499.75 181.135 1448.01 184.443 1396.27 187.548C1392.8 187.753 1388.51 187.1 1385.8 185.16C1372.15 175.362 1361.87 162.675 1354.59 147.392C1351.05 139.973 1346.6 132.909 1341.95 126.105C1323.16 98.6126 1295.26 83.8192 1265.5 71.5395C1260.43 69.4518 1255.11 66.3747 1251.63 62.2825C1220.14 25.216 1180.81 0.839111 1133.87 -11.2677C1117.03 -15.616 1099.95 -19.0614 1082.03 -23.1343C1082.03 -31.7798 1082.18 -40.6525 1082 -49.5189C1081.72 -62.5319 1081.61 -75.5737 1080.6 -88.5355C1080.12 -94.5969 1077.71 -101.408 1069.69 -100.159C1062.58 -99.0508 1057.83 -94.0718 1057.71 -86.2717C1057.54 -74.1873 1057.66 -62.0997 1057.66 -50.0089C1057.66 -41.8566 1057.66 -33.7074 1057.66 -24.7514C966.202 -33.2271 878.521 -17.6046 791.698 4.93121C704.924 27.4478 618.998 52.2154 544.897 107.473C540.561 77.8859 536.914 50.1566 532.3 22.5936C529.847 7.95081 527.097 -6.91931 521.986 -20.768C516.011 -36.9574 501.272 -44.5334 484.993 -39.1412C467.674 -33.4096 451.26 -24.7802 434.866 -16.5862C430.991 -14.649 427.463 -9.82684 426.057 -5.58093C422.195 6.08722 419.547 18.1588 416.204 30.8804C397.758 28.6805 380.028 26.5704 361.546 24.3675C362.542 21.2199 362.76 19.9135 363.272 18.892C369.762 5.98474 364.735 -5.47845 350.374 -7.04425C342.984 -7.84796 335.45 -8.15216 328.258 -9.85883C313.378 -13.397 307.317 -25.7953 313.128 -39.8809C315.428 -45.4525 318.492 -50.7101 320.752 -56.2945C324.624 -65.8749 322.767 -73.326 313.99 -78.5485C308.428 -81.8562 301.854 -83.8829 295.469 -85.2566C289.485 -86.5406 283.148 -86.2139 276.411 -86.627C277.721 -92.4835 278.995 -97.3762 279.892 -102.343C281.765 -112.714 280.045 -122.182 275.169 -129.685H264.211ZM1069.06 -90.1142C1073.41 -82.8776 1075.33 -43.2814 1072.11 -23.525C1065.24 -28.011 1063.41 -77.6776 1069.06 -90.1142ZM439.662 67.9949C443.563 41.9433 447.722 15.9238 452.323 -10.0093C452.973 -13.65 456.073 -18.0591 459.291 -19.8043C467.318 -24.1622 475.855 -27.8669 484.571 -30.6014C498.874 -35.0875 510.93 -30.0955 514.958 -15.8017C520.257 3.02289 523.248 22.5391 526.495 41.8793C530.017 62.8492 532.444 84.0018 535.886 104.985C536.965 111.578 534.958 115.257 529.738 119.16C509.527 134.27 486.71 143.294 462.615 149.781C451.068 152.893 439.666 156.556 426.496 160.475C431.062 128.27 435.157 98.1002 439.662 67.9949ZM811.349 30.6754C799.364 12.3311 799.751 10.6661 821.041 5.84381C880.903 -7.71674 941.229 -18.7636 1002.81 -19.3624C1056.81 -19.8875 1109.92 -12.936 1160.73 6.45544C1173.3 11.2488 1185.07 18.1396 1198.33 24.6205C1154.23 20.9573 1112.27 16.2504 1070.17 14.2427C992.641 10.5508 917.198 25.4786 842.194 42.9167C835.37 44.5049 830.9 45.5488 827.519 45.5488C821.07 45.5488 818.582 41.7512 811.349 30.6754ZM441.68 -10.5537C441.158 -4.21375 441.02 0.650208 440.312 5.42761C432.868 55.6801 425.442 105.932 417.578 156.114C417.04 159.528 413.624 163.517 410.457 165.25C405.571 167.92 399.746 168.868 393.595 170.77C392.301 153.373 433.015 -3.02258 441.68 -10.5537ZM479.287 159.515C479.412 157.424 481.734 154.324 483.706 153.662C505.089 146.495 523.936 134.914 541.538 121.126C602.703 73.2271 673.025 45.1069 747.366 25.6291C760.533 22.1805 773.677 18.6552 786.188 15.3347V74.6903C779.383 76.7172 772.518 78.9298 765.567 80.8094C713.502 94.8791 661.415 108.862 609.353 122.961C605.392 124.037 601.524 125.583 597.759 127.239C583.84 133.361 582.056 138.673 589.741 153.7C553.158 164.42 516.831 175.064 479.079 186.127C479.079 176.38 478.785 167.927 479.287 159.515ZM835.87 58.0687C836.004 56.6822 836.142 55.2989 836.28 53.9156C853.029 49.9451 869.712 45.6641 886.542 42.0746C944.498 29.702 1003.11 20.4611 1062.36 22.3694C1108.27 23.8488 1154.03 30.605 1199.81 35.4752C1216.56 37.2587 1228.79 46.7111 1236.87 59.8522C1209.95 55.2861 1182.6 49.6794 1154.99 46.1764C1104.03 39.718 1052.69 39.1 1001.7 44.1367C953.384 48.9077 905.456 57.4315 857.25 63.4033C856.651 63.4769 856.049 63.5089 855.441 63.5089C849.139 63.5089 842.383 59.8041 835.87 58.0687ZM857.666 112.791C841.371 103.592 825.044 94.4372 808.967 84.8696C794.999 76.5571 790.975 63.3008 792.374 47.9984C793.024 40.9187 794.494 33.9127 795.918 24.7581C799.226 28.8023 801.413 30.7107 802.646 33.1122C813.93 55.0652 833.516 67.1784 854.842 77.0534C870.964 84.5173 887.406 91.2991 903.673 98.4557C906.686 99.7845 909.551 101.456 912.075 105.093C896.049 108.26 880.042 111.526 863.974 114.469C863.696 114.52 863.404 114.543 863.106 114.543C861.323 114.543 859.257 113.691 857.666 112.791ZM889.869 83.1821C882.065 79.0995 873.631 76.2241 865.479 72.8044C865.457 72.18 865.437 71.5587 865.418 70.9343C881.822 68.0621 898.162 64.7449 914.643 62.3946C971.664 54.2647 1028.96 49.0229 1086.6 50.5504C1139.09 51.9368 1191.32 56.4101 1241.97 71.6196C1271.15 80.3804 1298.42 92.913 1320.79 114.347C1322.62 116.102 1324.35 117.962 1326.05 119.848C1326.42 120.274 1326.46 121.014 1326.6 121.443C1302.72 117.216 1278.9 111.991 1254.81 108.91C1146.61 95.0936 1038.21 83.1533 928.863 90.7452C926.634 90.8989 924.454 90.979 922.312 90.979C910.72 90.979 900.307 88.6415 889.869 83.1821ZM595.242 145.743C597.637 142.243 599.334 136.665 602.542 135.586C621.162 129.329 640.054 123.812 659.016 118.648C700.06 107.463 741.289 96.9667 782.233 85.4395C792.307 82.6025 798.685 84.719 804.57 95.5706C782.508 101.28 761.369 106.627 740.299 112.221C695.811 124.037 651.386 136.086 606.833 147.658C606.238 147.811 605.623 147.879 604.989 147.879C601.925 147.879 598.457 146.332 595.242 145.743ZM965.901 112.122C954.825 105.654 941.123 103.691 929.34 99.9414C932.997 99.5124 937.941 98.6349 942.917 98.398C998.596 95.7596 1054.22 96.9283 1109.67 102.461C1160.89 107.572 1212.11 112.913 1263.18 119.349C1286.11 122.24 1308.71 127.921 1331.39 132.701C1334.47 133.348 1337.94 135.535 1339.75 138.068C1344.7 144.987 1348.86 152.474 1353.99 160.805C1330.17 156.134 1308.2 151.439 1286.08 147.549C1200.05 132.413 1113.29 125.564 1025.98 126.64C1025.26 126.649 1024.55 126.653 1023.84 126.653C1003.11 126.653 984.242 122.829 965.901 112.122ZM208.887 264.33C293.497 242.985 378.395 222.703 462.637 199.995C576.305 169.348 689.592 137.264 802.723 104.696C821.557 99.2754 832.514 110.025 846.251 118.286C627.345 167.485 414.072 238.729 193.572 283.218C193.85 269.193 195.179 267.788 208.887 264.33ZM852.674 147.094C853.09 126.233 853.017 125.842 873.519 121.635C891.831 117.873 910.304 114.844 928.786 111.984C943.749 109.666 956.73 114.504 969.48 125.477C929.542 133.553 891.451 141.254 853.363 148.955C853.087 148.244 852.661 147.667 852.674 147.094ZM780.606 164.773C776.844 151.1 779.476 145.506 791.753 142.214C808.714 137.664 825.768 133.45 844.49 128.654C843.981 136.191 843.968 141.821 843.039 147.296C842.713 149.252 840.455 151.965 838.604 152.422C820.206 156.979 801.711 161.154 783.229 165.355C783.117 165.381 783.005 165.391 782.886 165.391C782.153 165.391 781.324 164.945 780.606 164.773ZM213.418 314.848C219.444 306.894 225.982 300.74 236.921 298.281C454.664 249.338 672.292 199.892 890.022 150.889C920.355 144.062 951.046 138.775 981.686 133.438C985.42 132.788 991.405 135.119 993.681 138.1C998.753 144.741 1002.13 152.666 1006.47 160.549C741.51 213.27 477.933 265.716 214.353 318.162C214.042 317.06 213.728 315.952 213.418 314.848ZM1217.46 199.255C1174.88 185.451 1131.14 178.135 1086.97 172.595C1066.16 169.986 1045.3 167.622 1024.56 164.561C1021.14 164.059 1017.12 161.199 1015.22 158.244C1010.95 151.615 1007.85 144.238 1002.94 134.536C1014.76 134.536 1024.22 134.472 1033.66 134.546C1126.06 135.263 1217.81 143.367 1308.81 159.342C1331.07 163.252 1353.11 168.541 1370.91 184.049C1372.28 185.246 1373.6 186.508 1376.26 188.951C1358.74 190.497 1342.76 191.605 1326.86 193.389C1302.54 196.12 1278.34 200.075 1253.97 202.006C1249.94 202.326 1245.79 202.534 1241.63 202.534C1233.34 202.534 1225 201.701 1217.46 199.255ZM721.705 159.313C737.642 155.266 753.645 151.494 770.831 147.306C771.071 150.796 771.157 152.97 771.381 155.131C772.425 165.368 768.471 170.437 757.642 172.128C741.452 174.648 725.551 178.999 709.535 182.569C705.919 166.111 707.578 162.909 721.705 159.313ZM443.463 169.262C443.611 167.539 445.445 165.077 447.046 164.52C454.072 162.064 461.302 160.184 471.25 157.277C470.19 168.516 469.524 177.715 468.253 186.831C468.058 188.237 465.253 189.751 463.38 190.363C457.142 192.393 450.783 194.036 442.026 196.521C442.515 186.111 442.72 177.664 443.463 169.262ZM655.36 176.015C669.381 172.419 683.419 168.868 698.164 165.115C701.222 181.445 699.083 184.756 684.831 187.898C671.623 190.808 658.45 193.866 645.363 196.838C640.813 183.021 642.747 179.249 655.36 176.015ZM413.848 177.142C415.904 172.464 424.908 170.84 433.832 166.303C432.929 178.56 434.091 188.429 430.844 196.533C429.115 200.859 419.778 202.134 411.014 206.072C411.882 194.138 410.559 184.625 413.848 177.142ZM909.065 187.702C953.374 180.952 996.172 165.823 1042.52 175.595C1091.82 185.992 1141.89 192.64 1191.6 201.08C1196.81 201.967 1201.85 203.908 1206.9 207.299C1184.69 210.18 1162.45 212.886 1140.26 215.982C1088.72 223.181 1037.17 230.34 985.683 237.961C981.456 238.589 977.338 238.899 973.332 238.899H973.278C942.459 238.899 918.632 220.673 909.065 187.702ZM384.508 186.421C386.816 181.903 395.286 180.543 401.972 177.286C406.009 202.809 402.583 208.451 382.167 211.56C378.254 202.822 380.829 193.62 384.508 186.421ZM1637.18 202.864V180.776C1660.4 182.605 1683.27 184.314 1706.1 186.415C1707.68 186.559 1710.05 189.534 1710.22 191.368C1710.77 196.946 1710.42 202.608 1710.42 208.445C1685.4 206.54 1661.5 204.718 1637.18 202.864ZM1529.43 187.955C1562.25 185.909 1594.39 183.908 1627.43 181.849V202.934C1594.86 204.221 1562.93 205.486 1530.32 206.777C1530.01 200.302 1529.75 194.705 1529.43 187.955ZM605.232 188.849C614.095 186.594 622.975 184.42 633.285 181.855V198.368C620.871 201.381 608.697 204.33 596.58 207.266C592.136 194.542 593.446 191.849 605.232 188.849ZM1720.13 210.139V188.032C1733.03 191.849 1745.75 194.324 1757.06 199.748C1760.41 201.356 1759.78 211.256 1761.27 218.887C1745.77 215.592 1733.16 212.912 1720.13 210.139ZM1425.63 194.631C1437.45 193.639 1448.44 192.524 1459.45 191.839C1474.67 190.888 1489.91 190.28 1505.13 189.489C1522.38 188.589 1522.38 188.573 1520.13 206.994C1489.63 208.848 1459.01 210.712 1427.42 212.633C1426.83 206.629 1426.27 201.099 1425.63 194.631ZM371.408 189.739C373.973 211.893 370.435 217.481 353.913 218.016C350.973 198.109 354.8 191.701 371.408 189.739ZM921.136 271.886C915.033 270.167 909.042 268.044 903.026 266.02C872.539 255.761 854.948 234.234 847.733 200.802C863.702 197.558 879.142 194.209 894.701 191.525C896.849 191.154 901.008 193.52 901.812 195.573C916.292 232.559 945.872 247.548 982.836 253.004C1021.01 258.646 1058.98 255.45 1096.97 251.829C1172.9 244.592 1248.72 235.963 1324.75 229.972C1409.36 223.312 1494.12 218.598 1578.86 213.699C1645.87 209.828 1712.34 212.838 1776.94 233.648C1779.31 234.41 1781.65 235.246 1784.71 236.29C1765.03 250.225 1745.96 263.852 1726.68 277.179C1724.64 278.591 1721.2 279.088 1718.71 278.566C1657.06 265.671 1594.8 267.724 1532.46 270.253C1468.28 272.857 1404.06 274.531 1339.89 277.359C1268.11 280.519 1196.38 284.784 1124.6 288.076C1105.68 288.943 1086.79 289.533 1067.93 289.533C1018.54 289.533 969.439 285.498 921.136 271.886ZM500.321 226.059C502.015 222.96 503.078 217.827 505.502 217.071C531.375 209.018 557.465 201.653 583.679 194.049C586.347 209.117 585.79 210.004 573.526 212.707C550.055 217.872 526.581 223.03 503.114 228.195C502.182 227.484 501.25 226.773 500.321 226.059ZM1330.63 214.151C1329.67 210.632 1330.37 206.655 1330.37 201.477C1359.15 199.261 1387.1 197.11 1416.02 194.881V212.995C1389.35 215.166 1362.88 217.439 1336.38 219.236C1336.34 219.239 1336.3 219.239 1336.26 219.239C1334.37 219.239 1331.21 216.248 1330.63 214.151ZM344.534 197.638C346.871 216.933 343.103 223.145 326.692 225.944C322.517 207.001 326.263 201.195 344.534 197.638ZM1235.49 212.761C1262.25 209.617 1288.64 206.402 1315.07 203.664C1316.86 203.482 1320.17 206.559 1320.75 208.672C1321.7 212.175 1321.01 216.13 1321.01 220.628C1304.95 222.37 1289.61 224.074 1274.27 225.684C1265.76 226.575 1257.25 227.321 1248.73 228.118C1245.39 228.432 1242.79 228.669 1240.78 228.669C1233.77 228.669 1234.05 225.739 1235.49 212.761ZM261.032 324.441C267.125 321.063 272.86 315.856 279.37 314.566C462.173 278.294 645.075 242.508 827.871 206.197C837.122 204.359 840.775 206.962 842.959 214.935C844.045 218.909 845.473 222.787 847.58 229.274C649.276 247.154 456.857 292.783 262.428 326.599C261.964 325.879 261.496 325.158 261.032 324.441ZM315.751 206.299C320.871 220.945 316.177 230.289 301.822 232.758C297.772 215.592 301.102 209.463 315.751 206.299ZM1143.13 223.712C1170.26 220.334 1197.18 216.981 1224.99 213.52V229.854C1205.84 231.707 1186.71 233.561 1167.57 235.422C1162.83 235.883 1158.1 236.312 1153.37 236.863C1151.28 237.106 1149.56 237.266 1148.17 237.266C1142.4 237.266 1142.05 234.548 1143.13 223.712ZM290.839 214.093C294.038 232.995 289.462 238.97 271.589 239.082C275.332 228.473 278.905 218.461 290.839 214.093ZM440.726 238.448C443.159 236.325 445.26 233.129 448.081 232.258C460.709 228.358 473.517 225.018 486.332 221.759C488 221.336 490.085 222.556 491.974 223.017C491.353 225.268 491.381 228.176 489.944 229.61C488.054 231.493 485.131 232.694 482.448 233.347C469.406 236.523 456.297 239.418 443.21 242.412C442.384 241.093 441.555 239.77 440.726 238.448ZM1001.27 245.623C1001.17 245.15 1001.07 244.669 1000.98 244.195C1042.41 238.208 1083.83 232.194 1125.26 226.27C1129.37 225.681 1134.53 224.986 1133.69 231.49C1133.32 234.256 1130.36 238.771 1128.32 238.922C1088.76 241.787 1049.17 244.157 1009.58 246.514C1009.31 246.53 1009.04 246.536 1008.77 246.536C1006.29 246.536 1003.77 245.912 1001.27 245.623ZM410.447 248.384C412.801 239.876 418.91 237.061 431.501 238.115C431.267 245.133 425.868 248.473 414.027 248.473C412.894 248.473 411.699 248.444 410.447 248.384ZM750.498 250.231C767.376 247.951 784.273 245.534 801.211 243.414C815.707 241.598 830.225 239.86 844.784 238.701C848.06 238.438 852.94 239.645 854.701 241.976C867.189 258.505 883.116 269.815 902.965 277.189C852.37 283.391 801.781 289.593 750.498 295.879V250.231ZM362.664 259.331C365.091 251.352 386.618 243.885 401.225 245.96C399.016 253.606 383.855 259.565 368.027 259.565C366.244 259.565 364.447 259.488 362.664 259.331ZM727.972 292.053C727.331 280.964 727.149 269.821 727.479 258.713C727.677 252.047 729.153 251.63 740.69 253.356C740.69 266.011 741.065 278.944 740.344 291.819C740.213 294.124 735.567 296.18 733.008 298.351C731.251 296.257 728.1 294.243 727.972 292.053ZM583.074 279.978C583.494 277.73 587.679 275.04 590.474 274.554C626.462 268.313 662.507 262.396 698.552 256.507C704.447 255.54 710.428 255.108 718.337 254.208V299.939C672.045 306.571 625.331 313.263 577.272 320.147C579.2 306.049 580.67 292.924 583.074 279.978ZM353.41 256.686C352.094 259.485 351.508 263.026 350.08 263.407C332.244 268.185 314.288 272.498 294.301 277.442C299.533 267.884 331.793 257.551 353.41 256.686ZM285.921 273.814C276.875 284.579 263.978 283.458 251.653 284.259C261.08 274.963 273.785 275.345 285.921 273.814ZM453.585 335.738C454.811 324.784 455.967 313.349 457.53 301.972C457.699 300.711 460.05 299.078 461.619 298.77C498.32 291.614 535.05 284.617 574.346 277.102C571.685 292.494 569.427 306.135 566.814 319.708C566.581 320.925 564.17 322.379 562.613 322.597C527.695 327.473 492.752 332.196 457.812 336.913C457.764 336.919 457.715 336.922 457.664 336.922C457.117 336.922 456.351 336.525 453.585 335.738ZM1074.07 297.688C1147.78 295.242 1221.39 289.917 1295.1 286.984C1375.81 283.772 1456.57 281.822 1537.32 279.504C1569.41 278.582 1601.55 276.994 1633.62 277.842C1659.85 278.54 1686 282.405 1712.18 284.867C1712.41 285.85 1712.65 286.837 1712.88 287.823C1706.69 292.674 1700.58 297.637 1694.28 302.357C1633.4 347.973 1574.62 396.105 1520.51 449.681C1489.94 479.943 1461.52 512.053 1439.35 549.248C1437.92 551.656 1434.13 553.827 1431.29 554.019C1422.43 554.624 1413.5 554.217 1404.6 554.217C983.803 554.24 563.01 554.249 142.218 554.438C136.025 554.442 132.541 552.745 129.375 547.365C115.692 524.112 106.493 499.431 102.993 471.785C111.411 470.712 119.263 470.081 126.928 468.519C129.301 468.035 131.158 465.022 133.249 463.168C130.844 461.577 128.446 458.65 126.035 458.644C118.782 458.615 111.527 459.72 102.689 460.527C103.477 451.01 103.963 441.628 105.305 432.368C105.532 430.777 109.247 429.025 111.597 428.545C116.864 427.463 122.372 427.511 127.613 426.342C130.604 425.676 133.265 423.524 136.073 422.045C135.862 421.004 135.647 419.963 135.436 418.923H108.222C110.137 400.406 113.115 396.336 130.498 393.694C173.534 387.165 216.69 381.44 259.754 375.116C322.626 365.881 385.42 356.131 448.321 347.114C523.494 336.336 598.713 325.863 673.973 315.696C748.609 305.613 823.331 296.17 897.986 286.235C918.318 283.529 938.226 283.212 958.433 288.386C987.943 295.946 1018.14 298.152 1048.32 298.152C1056.91 298.152 1065.5 297.973 1074.07 297.688ZM429.224 307.566C430.354 303.977 440.082 303.103 448.289 300.112C446.944 313.724 446.214 324.406 444.562 334.94C444.248 336.913 440.453 338.937 437.882 339.801C434.36 340.989 430.473 341.095 424.61 341.991C425.977 329.74 425.894 318.114 429.224 307.566ZM294.121 359.484C296.091 350.304 297.65 341.623 299.997 333.16C300.583 331.053 303.5 328.527 305.713 328.098C342.715 320.98 379.778 314.159 416.835 307.301C417.082 307.256 417.396 307.56 419.893 308.805C418.651 318.933 417.46 330 415.721 340.976C415.519 342.251 412.372 343.672 410.434 343.967C373.775 349.471 337.099 354.838 300.41 360.14C300.122 360.182 299.831 360.198 299.533 360.198C298.031 360.198 296.366 359.737 294.121 359.484ZM144.241 380.86C150.409 366.166 156.464 351.428 162.893 336.855C163.614 335.219 166.339 333.864 168.34 333.499C196.649 328.303 224.996 323.304 253.334 318.255C253.696 318.988 254.051 319.715 254.413 320.448C253.014 322.244 251.778 324.198 250.193 325.808C235.944 340.269 221.798 354.838 207.212 368.952C204.081 371.981 199.511 374.412 195.246 375.219C179.172 378.257 162.948 380.511 146.781 383.06C145.935 382.327 145.087 381.594 144.241 380.86ZM273.407 363.153C274.442 339.308 278.034 332.219 289.184 331.383C292.078 347.909 284.992 363.166 273.949 363.166C273.769 363.166 273.59 363.163 273.407 363.153ZM269.562 335.44C267.125 345.357 265.034 354.742 262.345 363.951C261.912 365.417 258.883 366.72 256.888 367.025C244.115 368.971 231.301 370.62 217.837 372.455C229.681 351.187 249.924 336.295 269.562 335.44ZM160.886 590.166C154.04 581.931 147.079 573.795 138.19 563.276H1429.36V597.688C1425.63 597.688 1422.25 597.691 1418.85 597.688C1005.42 597.557 591.973 597.413 178.535 597.422C171.289 597.422 165.525 595.741 160.886 590.166Z" fill="url(#paint1_linear_16_2040)"></path>
</g>
<defs>
<linearGradient id="paint0_linear_16_2040" x1="-88.1602" y1="398.288" x2="1804.66" y2="398.288" gradientUnits="userSpaceOnUse">
<stop stop-color="white"></stop>
<stop offset="0.209987" stop-color="white"></stop>
<stop offset="0.504964" stop-color="white"></stop>
<stop offset="1" stop-color="white" stop-opacity="0.700008"></stop>
</linearGradient>
<linearGradient id="paint1_linear_16_2040" x1="-90.6006" y1="268.604" x2="1802.22" y2="268.604" gradientUnits="userSpaceOnUse">
<stop></stop>
<stop offset="0.209987"></stop>
<stop offset="0.504964"></stop>
<stop offset="1" stop-color="#FFFDC0"></stop>
</linearGradient>
</defs>
</svg>