<svg width="1204" height="469" viewBox="0 0 1204 469" fill="none" xmlns="http://www.w3.org/2000/svg">
<mask id="mask0_131_8" style="mask-type:luminance" maskUnits="userSpaceOnUse" x="0" y="0" width="1204" height="469">
<path d="M0 4.38846e-05H1204V468.236H0V4.38846e-05Z" fill="url(#paint0_linear_131_8)"/>
</mask>
<g mask="url(#mask0_131_8)">
<path d="M226.638 -82.2804C230.929 -78.2823 232.335 -72.4314 230.748 -65.2173C230.533 -64.2361 230.153 -63.2893 229.929 -62.3081C227.256 -50.6306 229.491 -47.9734 241.341 -48.6519C242.95 -48.7454 244.579 -48.8428 246.17 -48.6823C256.21 -47.6624 258.786 -43.5588 255.395 -34.0246C254.45 -31.3714 253.559 -28.6714 252.315 -26.1543C246.279 -13.9161 257.327 -1.47484 267.381 -0.617519C271.199 -0.292468 275.036 -0.144131 278.823 0.394235C281.462 0.768043 284.028 1.66396 287.36 2.51316C285.862 5.69256 284.822 7.8216 283.849 9.9771C281.141 15.9743 282.303 19.6169 288.676 20.8724C297.538 22.6196 306.621 23.2412 315.613 24.32C317.403 24.5353 319.205 24.6308 321.598 24.834C320.602 28.7488 319.761 32.3711 318.747 35.9426C317.764 39.4125 316.604 42.8337 315.015 47.8882C301.315 44.7047 287.504 42.1795 274.134 38.1773C263.33 34.941 263.584 34.3031 258.572 42.6122C254.881 48.7334 248.081 49.6638 241.538 50.0924C224.501 51.2037 208.301 48.1056 192.794 40.798C187.203 38.1651 181.2 36.0665 175.158 34.8252C167.678 33.2894 162.843 36.9543 162.093 44.4406C161.049 54.8748 154.96 61.2071 146.292 65.7335C133.217 72.5636 119.014 74.7963 104.632 73.6282C91.4537 72.5555 78.1611 70.6498 65.3967 67.2896C50.0848 63.261 35.0675 61.1726 19.5362 64.992C17.98 65.3759 16.2572 65.8249 14.7599 65.5161C12.5618 65.0671 9.46771 64.5085 8.65915 62.9889C7.81401 61.392 8.65509 58.2614 9.77245 56.4188C11.2982 53.8996 13.5105 51.5857 15.9078 49.8446C24.3814 43.689 33.1883 37.9884 41.6173 31.7758C48.2483 26.8859 55.0743 22.0507 60.8074 16.2039C70.0186 6.81598 69.4091 -3.78266 60.1959 -13.2396C59.9136 -13.5281 59.6271 -13.8126 59.3407 -14.0949C49.0487 -24.3279 49.2865 -26.4956 61.8375 -34.5914C70.1324 -39.9446 78.7279 -44.863 86.7729 -50.5595C98.5255 -58.8828 100.657 -67.0274 95.5005 -80.4744C95.2628 -81.096 95.0353 -81.6973 94.822 -82.2804H88.4692C89.2087 -80.578 89.9421 -78.8714 90.6329 -77.1487C93.6985 -69.4897 91.2911 -60.6096 84.6479 -55.7237C79.7315 -52.1075 74.2483 -49.2613 69.1816 -45.8341C62.9954 -41.6491 56.5838 -37.6753 50.9117 -32.8727C46.0278 -28.7405 45.1562 -21.2867 49.2031 -16.3317C51.9193 -13.004 55.3161 -10.2512 58.1725 -7.03114C62.581 -2.06802 62.7293 5.25376 58.4894 10.3611C54.2963 15.4116 49.1564 19.8404 43.8581 23.7654C37.3957 28.5558 29.9418 32.0399 23.6196 36.9868C16.5416 42.5228 9.52866 48.4631 3.82605 55.34C-1.54744 61.8186 3.08249 70.4569 11.548 70.9729C15.7351 71.2268 20.0765 70.9424 24.1783 70.0851C37.5805 67.2876 50.4058 68.9637 63.544 72.5453C75.8979 75.9116 88.7313 78.3231 101.49 79.2129C119.361 80.4603 136.985 78.1484 152.742 68.3461C160.072 63.7852 165.283 57.7271 166.577 48.7943C167.792 40.3999 170.971 38.4861 179.006 41.0784C181.3 41.8179 183.445 43.0348 185.749 43.7438C198.794 47.7724 211.631 53.1683 224.989 55.2994C240.351 57.7515 256.443 58.1273 266.132 43.116C282.586 46.6469 298.426 50.0478 314.217 53.4405C310.233 71.2268 306.404 88.9523 302.137 106.568C301.609 108.746 299.088 111.33 296.92 112.082C282.271 117.154 267.619 122.349 252.667 126.384C240.317 129.716 230.202 134.807 226.063 147.864C225.763 148.808 225.33 149.877 224.617 150.49C222.189 152.577 219.885 155.521 217.039 156.276C205.949 159.22 194.651 161.376 183.476 164.021C181.692 164.443 179.561 165.467 178.579 166.893C171.54 177.153 174.598 183.581 186.775 184.621C187.11 184.651 187.419 184.972 188.526 185.61C185.336 190.496 182.504 195.606 178.874 200.067C177.082 202.269 173.86 204.526 171.223 204.601C162.25 204.867 157.004 209.199 154.213 217.36C152.779 221.549 151.082 225.648 149.5 229.787C147.817 234.193 146.127 238.597 143.925 244.343C101.173 212.002 55.9886 187.778 2.46084 182.126V187.605C55.7224 197.696 119.552 225.744 134.029 245.434C125.732 247.987 123.845 255.354 122.094 262.288C115.53 288.306 118.189 313.499 129.824 337.714C130.803 339.757 131.705 341.836 132.894 344.448C128.205 344.448 124.578 344.446 120.954 344.448C83.2096 344.477 45.4671 344.491 7.72461 344.552C7.34877 344.554 6.95467 344.538 6.55445 344.521C3.82606 344.408 0.861982 344.294 2.91793 349.659C5.23798 349.659 7.62709 349.653 10.0142 349.659C49.9792 349.738 89.9422 349.775 129.903 349.994C132.432 350.009 136.012 350.653 137.3 352.359C143.797 360.981 149.697 370.052 156.133 379.44H2.46692V384.482C17.7281 384.482 32.6296 384.484 47.5311 384.482C436.06 384.462 562.83 384.442 951.359 384.419C975.951 385.955 981.152 379.659 972.522 379.659C972.522 371.887 972.081 365.071 972.66 358.342C973.136 352.82 980.411 346.868 980.411 346.868C980.411 345.531 994.179 326.812 1000.78 318.834C1027 287.117 1057.31 259.567 1089.48 234.142C1120.63 209.52 1152.57 185.888 1184.27 161.971C1190.05 157.613 1196.38 154.001 1202.45 150.031C1202.38 149.17 1202.36 148.983 1202.28 148.122C1198.23 146.297 1194.28 144.17 1190.1 142.71C1180.69 139.425 1180.64 139.561 1181.79 129.358C1183.99 129.106 1186.19 128.85 1188.39 128.594C1188.6 127.617 1188.6 127.635 1188.81 126.658C1186.65 125.277 1184.64 123.434 1182.28 122.67C1173.47 119.83 1164.64 116.949 1155.63 114.936C1151.21 113.949 1149.67 112.399 1149.68 107.915L1144.05 108.4C1144.05 109.707 1143.71 111.009 1143.5 112.541C1109.85 108.77 1076.61 110.653 1043.36 112.801C1010.54 114.924 977.721 117.022 944.891 118.993C942.688 119.123 939.964 118.709 938.25 117.477C929.587 111.261 923.066 103.212 918.446 93.5152C916.203 88.808 913.379 84.3264 910.429 80.0093C898.504 62.5663 880.805 53.1804 861.921 45.3893C858.705 44.0648 855.327 42.1124 853.123 39.5161C833.144 15.9987 808.191 0.532355 778.41 -7.149C767.722 -9.90787 756.883 -12.0938 745.519 -14.678C745.519 -20.1632 745.614 -25.7927 745.494 -31.4181C745.32 -39.6744 745.253 -47.9489 744.609 -56.1727C744.306 -60.0185 742.774 -64.3396 737.689 -63.5473C733.177 -62.8444 730.16 -59.6853 730.087 -54.7365C729.975 -47.0693 730.057 -39.4001 730.057 -31.7289C730.054 -26.5566 730.057 -21.3862 730.057 -15.7039C672.027 -21.0815 616.396 -11.1695 561.31 3.12868C506.255 17.4147 451.738 33.1289 404.723 68.1876C401.973 49.4159 399.659 31.8226 396.731 14.3348C395.175 5.04449 393.43 -4.39009 390.188 -13.1766C386.397 -23.4482 377.045 -28.2549 366.717 -24.8338C355.728 -21.1973 345.314 -15.7222 334.913 -10.5234C332.454 -9.29429 330.216 -6.23479 329.324 -3.54093C326.874 3.8621 325.194 11.5211 323.073 19.5925C311.369 18.1968 300.12 16.858 288.394 15.4603C289.026 13.4633 289.164 12.6344 289.489 11.9863C293.607 3.7971 290.417 -3.47593 281.306 -4.46936C276.617 -4.97929 271.836 -5.17228 267.274 -6.25511C257.833 -8.49999 253.987 -16.3662 257.674 -25.3031C259.133 -28.838 261.077 -32.1739 262.512 -35.7169C264.968 -41.7954 263.789 -46.5229 258.221 -49.8363C254.692 -51.9349 250.521 -53.2209 246.47 -54.0924C242.673 -54.9071 238.653 -54.6998 234.378 -54.9619C235.209 -58.6776 236.018 -61.7819 236.587 -64.9328C237.775 -71.5131 236.684 -77.5204 233.59 -82.2804H226.638ZM737.287 -57.1744C740.05 -52.583 741.265 -27.4606 739.221 -14.9258C734.865 -17.7721 733.703 -49.2837 737.287 -57.1744ZM337.956 43.1404C340.43 26.6116 343.069 10.1031 345.989 -6.35058C346.401 -8.66047 348.368 -11.4579 350.409 -12.5651C355.503 -15.3301 360.919 -17.6806 366.449 -19.4156C375.524 -22.2618 383.172 -19.0946 385.728 -10.0257C389.09 1.91791 390.988 14.3003 393.048 26.5709C395.283 39.8757 396.823 53.2962 399.007 66.6091C399.691 70.7921 398.417 73.1263 395.106 75.6028C382.283 85.1898 367.806 90.9148 352.518 95.0307C345.192 97.0054 337.958 99.3295 329.602 101.816C332.499 81.3827 335.098 62.2412 337.956 43.1404ZM573.778 19.4625C566.174 7.82365 566.42 6.76722 579.928 3.70768C617.908 -4.896 656.183 -11.9049 695.252 -12.2848C729.514 -12.6179 763.212 -8.20744 795.451 4.09573C803.424 7.13699 810.891 11.5089 819.307 15.6208C791.327 13.2967 764.701 10.3103 737.99 9.03652C688.801 6.69412 640.936 16.1653 593.348 27.2292C589.019 28.2368 586.183 28.8992 584.038 28.8992C579.946 28.8992 578.368 26.4897 573.778 19.4625ZM339.236 -6.69598C338.905 -2.67347 338.817 0.412533 338.368 3.44363C333.645 35.327 328.934 67.2105 323.944 99.0492C323.603 101.215 321.435 103.746 319.426 104.845C316.326 106.54 312.63 107.141 308.728 108.348C307.907 97.3101 333.738 -1.91773 339.236 -6.69598ZM363.097 101.207C363.176 99.88 364.649 97.9135 365.9 97.4929C379.467 92.9463 391.425 85.5982 402.592 76.8502C441.399 46.46 486.016 28.6188 533.183 16.2608C541.537 14.0728 549.877 11.836 557.814 9.72929V47.3884C553.497 48.6744 549.141 50.0782 544.731 51.2708C511.698 60.1975 478.65 69.0693 445.619 78.0143C443.106 78.6969 440.652 79.6782 438.263 80.7285C429.431 84.6128 428.3 87.9832 433.175 97.5174C409.965 104.319 386.917 111.072 362.965 118.091C362.965 111.907 362.778 106.544 363.097 101.207ZM589.336 36.8425C589.421 35.9629 589.509 35.0852 589.596 34.2076C600.223 31.6885 610.808 28.9723 621.485 26.6949C658.257 18.8449 695.447 12.9818 733.037 14.1926C762.165 15.1312 791.198 19.4178 820.242 22.5078C830.869 23.6394 838.632 29.6366 843.759 37.9741C826.678 35.0771 809.324 31.5199 791.804 29.2973C759.476 25.1996 726.899 24.8076 694.547 28.0032C663.894 31.0303 633.486 36.4383 602.901 40.2272C602.521 40.2739 602.139 40.2942 601.753 40.2942C597.755 40.2942 593.468 37.9436 589.336 36.8425ZM603.165 71.5621C592.826 65.7254 582.467 59.9171 572.267 53.8468C563.405 48.5729 560.851 40.1621 561.739 30.4533C562.152 25.9615 563.084 21.5164 563.988 15.7082C566.087 18.274 567.474 19.4849 568.256 21.0086C575.416 34.937 587.843 42.6224 601.373 48.8877C611.602 53.6233 622.034 57.9262 632.354 62.4667C634.266 63.3098 636.084 64.3703 637.685 66.6781C627.517 68.6874 617.361 70.7596 607.167 72.6266C606.99 72.6591 606.805 72.6733 606.616 72.6733C605.485 72.6733 604.174 72.1329 603.165 71.5621ZM623.596 52.7762C618.645 50.1859 613.294 48.3616 608.122 46.1919C608.108 45.7957 608.095 45.4015 608.083 45.0054C618.491 43.1831 628.858 41.0784 639.314 39.5872C675.493 34.4291 711.845 31.1034 748.418 32.0724C781.721 32.9521 814.858 35.7902 846.996 45.4402C865.509 50.9985 882.806 58.9501 896.999 72.5494C898.161 73.6627 899.26 74.843 900.336 76.0396C900.576 76.3098 900.598 76.7791 900.688 77.0514C885.538 74.3697 870.426 71.0542 855.14 69.0998C786.487 60.3336 717.717 52.7579 648.337 57.5747C646.923 57.6722 645.539 57.723 644.18 57.723C636.826 57.723 630.219 56.24 623.596 52.7762ZM436.666 92.4689C438.185 90.2484 439.262 86.7094 441.298 86.0248C453.111 82.0551 465.097 78.5547 477.128 75.2778C503.169 68.1815 529.327 61.522 555.305 54.2084C561.696 52.4084 565.743 53.7513 569.477 60.6363C555.48 64.2585 542.067 67.6513 528.7 71.2004C500.473 78.6969 472.287 86.3417 444.02 93.6838C443.642 93.7813 443.252 93.8239 442.85 93.8239C440.906 93.8239 438.705 92.8427 436.666 92.4689ZM671.836 71.1374C664.809 67.0337 656.116 65.7884 648.639 63.4094C650.959 63.1372 654.096 62.5805 657.253 62.4301C692.58 60.7561 727.868 61.4977 763.055 65.0082C795.552 68.2506 828.047 71.6392 860.449 75.7227C875.001 77.5572 889.339 81.1612 903.725 84.1943C905.677 84.6047 907.882 85.9923 909.029 87.5992C912.168 91.9894 914.809 96.7393 918.066 102.025C902.955 99.0614 889.01 96.083 874.978 93.6147C820.394 84.0115 765.351 79.666 709.954 80.3486C709.499 80.3547 709.046 80.3567 708.595 80.3567C695.447 80.3567 683.473 77.931 671.836 71.1374ZM191.537 167.708C245.219 154.166 299.084 141.298 352.532 126.89C424.651 107.446 496.528 87.0893 568.305 66.4262C580.255 62.9868 587.207 69.8067 595.922 75.0482C457.034 106.263 321.72 151.466 181.82 179.692C181.997 170.794 182.84 169.902 191.537 167.708ZM599.998 93.3262C600.262 80.0906 600.215 79.8427 613.223 77.1732C624.842 74.7862 636.562 72.8643 648.288 71.0501C657.781 69.5792 666.017 72.6489 674.107 79.6111C648.767 84.7347 624.6 89.6206 600.434 94.5065C600.26 94.0555 599.99 93.6899 599.998 93.3262ZM554.273 104.542C551.886 95.8677 553.556 92.3186 561.345 90.2301C572.106 87.3433 582.926 84.6697 594.805 81.6264C594.482 86.4087 594.474 89.9803 593.885 93.4542C593.677 94.6955 592.245 96.4162 591.071 96.7067C579.397 99.5977 567.663 102.247 555.937 104.912C555.866 104.929 555.795 104.935 555.72 104.935C555.254 104.935 554.728 104.652 554.273 104.542ZM194.411 199.76C198.235 194.714 202.383 190.809 209.323 189.249C347.474 158.196 485.551 126.825 623.694 95.7336C642.939 91.4023 662.411 88.0482 681.851 84.6616C684.22 84.2492 688.017 85.7282 689.462 87.6196C692.68 91.833 694.825 96.8611 697.576 101.863C529.468 135.313 362.237 168.588 195.005 201.863C194.808 201.164 194.609 200.461 194.411 199.76ZM831.442 126.42C804.424 117.662 776.677 113.02 748.647 109.506C735.444 107.85 722.215 106.351 709.054 104.408C706.886 104.089 704.333 102.275 703.126 100.4C700.42 96.1948 698.449 91.5141 695.335 85.3584C702.838 85.3584 708.835 85.3178 714.83 85.3645C773.451 85.8196 831.663 90.9615 889.402 101.097C903.526 103.578 917.507 106.934 928.799 116.773C929.67 117.532 930.505 118.333 932.193 119.883C921.079 120.864 910.941 121.567 900.85 122.699C885.423 124.432 870.066 126.941 854.606 128.166C852.046 128.369 849.415 128.501 846.778 128.501C841.514 128.501 836.226 127.973 831.442 126.42ZM516.902 101.079C527.014 98.5108 537.167 96.1176 548.071 93.4603C548.223 95.6747 548.278 97.0542 548.42 98.4255C549.082 104.92 546.573 108.136 539.703 109.209C529.431 110.808 519.342 113.569 509.18 115.834C506.887 105.392 507.939 103.36 516.902 101.079ZM340.367 107.391C340.461 106.298 341.625 104.736 342.641 104.382C347.098 102.824 351.685 101.631 357.997 99.7866C357.325 106.917 356.902 112.754 356.096 118.538C355.972 119.43 354.192 120.391 353.004 120.779C349.046 122.067 345.012 123.109 339.455 124.686C339.766 118.081 339.896 112.722 340.367 107.391ZM474.808 111.675C483.705 109.394 492.611 107.141 501.966 104.76C503.907 115.121 502.549 117.222 493.507 119.214C485.127 121.061 476.769 123.001 468.466 124.887C465.579 116.12 466.806 113.727 474.808 111.675ZM321.577 112.39C322.882 109.422 328.594 108.392 334.256 105.514C333.684 113.29 334.421 119.552 332.361 124.694C331.264 127.438 325.34 128.247 319.779 130.746C320.33 123.174 319.491 117.138 321.577 112.39ZM635.775 119.091C663.888 114.808 691.042 105.209 720.451 111.409C751.725 118.006 783.497 122.223 815.035 127.578C818.342 128.141 821.536 129.372 824.744 131.524C810.649 133.352 796.537 135.069 782.461 137.033C749.759 141.6 717.052 146.143 684.387 150.978C681.705 151.376 679.093 151.573 676.551 151.573H676.517C656.963 151.573 641.846 140.01 635.775 119.091ZM302.962 118.278C304.427 115.411 309.8 114.548 314.042 112.482C316.604 128.676 314.43 132.255 301.477 134.228C298.994 128.684 300.628 122.845 302.962 118.278ZM1097.74 128.71V114.696C1112.47 115.856 1126.98 116.941 1141.47 118.274C1142.47 118.365 1143.97 120.253 1144.08 121.417C1144.43 124.956 1144.21 128.548 1144.21 132.251C1128.33 131.042 1113.17 129.886 1097.74 128.71ZM1029.38 119.251C1050.2 117.953 1070.59 116.683 1091.55 115.377V128.755C1070.89 129.571 1050.63 130.374 1029.94 131.193C1029.75 127.085 1029.58 123.534 1029.38 119.251ZM443.004 119.818C448.628 118.388 454.261 117.008 460.803 115.381V125.858C452.926 127.769 445.202 129.64 437.515 131.503C434.695 123.43 435.526 121.721 443.004 119.818ZM1150.37 133.326V119.3C1158.55 121.721 1166.63 123.292 1173.8 126.733C1175.92 127.753 1175.52 134.035 1176.47 138.876C1166.64 136.785 1158.64 135.085 1150.37 133.326ZM963.516 123.487C971.017 122.857 977.989 122.15 984.976 121.715C994.63 121.112 1004.3 120.726 1013.96 120.224C1024.9 119.653 1024.9 119.643 1023.47 131.331C1004.12 132.507 984.697 133.689 964.656 134.908C964.278 131.099 963.927 127.591 963.516 123.487ZM294.651 120.383C296.278 134.439 294.033 137.984 283.551 138.323C281.686 125.693 284.113 121.628 294.651 120.383ZM643.435 172.502C639.562 171.412 635.761 170.065 631.944 168.781C612.601 162.272 601.44 148.613 596.863 127.402C606.994 125.344 616.791 123.219 626.662 121.516C628.025 121.281 630.664 122.782 631.174 124.084C640.361 147.551 659.128 157.061 682.581 160.522C706.803 164.102 730.893 162.074 754.994 159.777C803.173 155.185 851.276 149.71 899.514 145.909C953.194 141.684 1006.98 138.693 1060.74 135.585C1103.26 133.129 1145.43 135.038 1186.41 148.242C1187.91 148.725 1189.4 149.255 1191.34 149.918C1178.85 158.759 1166.76 167.405 1154.53 175.861C1153.23 176.757 1151.05 177.071 1149.47 176.74C1110.36 168.559 1070.85 169.861 1031.3 171.466C990.581 173.118 949.833 174.181 909.121 175.974C863.577 177.98 818.064 180.686 772.522 182.774C760.52 183.325 748.534 183.698 736.57 183.698C705.233 183.698 674.081 181.139 643.435 172.502ZM376.442 143.427C377.517 141.46 378.191 138.204 379.729 137.724C396.144 132.615 412.697 127.942 429.33 123.117C431.022 132.678 430.669 133.24 422.888 134.955C407.996 138.232 393.103 141.505 378.213 144.782C377.622 144.331 377.031 143.88 376.442 143.427ZM903.246 135.871C902.634 133.639 903.079 131.115 903.079 127.83C921.341 126.425 939.074 125.059 957.423 123.645V135.138C940.502 136.515 923.705 137.958 906.89 139.097C906.866 139.099 906.841 139.099 906.817 139.099C905.616 139.099 903.611 137.202 903.246 135.871ZM277.6 125.395C279.083 137.637 276.692 141.578 266.28 143.354C263.631 131.335 266.008 127.652 277.6 125.395ZM842.884 134.99C859.857 132.995 876.602 130.955 893.372 129.218C894.508 129.102 896.608 131.055 896.974 132.395C897.58 134.618 897.139 137.127 897.139 139.981C886.948 141.086 877.219 142.167 867.484 143.189C862.088 143.754 856.684 144.227 851.282 144.733C849.161 144.932 847.512 145.082 846.238 145.082C841.789 145.082 841.967 143.224 842.884 134.99ZM224.621 205.847C228.487 203.703 232.125 200.4 236.256 199.581C352.238 176.568 468.283 153.863 584.261 130.825C590.13 129.659 592.448 131.31 593.834 136.369C594.522 138.89 595.429 141.35 596.765 145.466C470.948 156.811 348.865 185.76 225.507 207.216C225.212 206.759 224.915 206.302 224.621 205.847ZM259.338 130.89C262.587 140.182 259.609 146.11 250.501 147.677C247.931 136.785 250.044 132.897 259.338 130.89ZM784.281 141.938C801.495 139.794 818.572 137.667 836.216 135.471V145.834C824.069 147.01 811.929 148.187 799.79 149.367C796.783 149.66 793.777 149.932 790.78 150.281C789.451 150.436 788.364 150.537 787.477 150.537C783.82 150.537 783.594 148.812 784.281 141.938ZM243.533 135.835C245.562 147.827 242.659 151.618 231.319 151.689C233.694 144.959 235.961 138.606 243.533 135.835ZM338.63 151.287C340.174 149.94 341.507 147.912 343.297 147.36C351.309 144.885 359.436 142.766 367.566 140.698C368.624 140.43 369.947 141.204 371.146 141.497C370.751 142.925 370.77 144.77 369.858 145.68C368.659 146.874 366.804 147.636 365.102 148.051C356.827 150.066 348.51 151.902 340.207 153.802C339.683 152.965 339.157 152.126 338.63 151.287ZM694.277 155.84C694.216 155.539 694.153 155.234 694.092 154.934C720.376 151.134 746.658 147.319 772.947 143.561C775.551 143.187 778.824 142.746 778.29 146.872C778.06 148.628 776.179 151.492 774.885 151.588C749.787 153.406 724.669 154.909 699.551 156.404C699.38 156.415 699.207 156.419 699.037 156.419C697.46 156.419 695.863 156.022 694.277 155.84ZM319.42 157.591C320.913 152.193 324.789 150.407 332.777 151.076C332.629 155.529 329.204 157.648 321.691 157.648C320.972 157.648 320.214 157.629 319.42 157.591ZM535.17 158.763C545.879 157.317 556.599 155.783 567.346 154.438C576.543 153.286 585.754 152.183 594.992 151.447C597.07 151.281 600.166 152.047 601.284 153.526C609.207 164.013 619.312 171.188 631.905 175.867C599.805 179.802 567.708 183.737 535.17 187.725V158.763ZM289.103 164.537C290.643 159.474 304.301 154.736 313.569 156.053C312.167 160.904 302.548 164.685 292.506 164.685C291.374 164.685 290.234 164.636 289.103 164.537ZM520.878 185.297C520.472 178.262 520.356 171.192 520.565 164.145C520.691 159.915 521.628 159.651 528.948 160.746C528.948 168.775 529.185 176.98 528.728 185.149C528.645 186.612 525.697 187.916 524.074 189.293C522.958 187.965 520.959 186.687 520.878 185.297ZM428.946 177.636C429.212 176.21 431.867 174.504 433.641 174.195C456.473 170.235 479.343 166.481 502.212 162.745C505.952 162.131 509.747 161.857 514.765 161.286V190.301C485.395 194.508 455.756 198.754 425.265 203.122C426.488 194.177 427.42 185.85 428.946 177.636ZM283.232 162.859C282.397 164.634 282.025 166.881 281.119 167.123C269.803 170.154 258.41 172.891 245.729 176.027C249.048 169.963 269.516 163.407 283.232 162.859ZM240.412 173.726C234.673 180.556 226.49 179.845 218.67 180.352C224.651 174.455 232.713 174.697 240.412 173.726ZM346.789 213.014C347.567 206.064 348.301 198.809 349.292 191.591C349.4 190.791 350.891 189.755 351.886 189.56C375.172 185.019 398.476 180.58 423.408 175.812C421.719 185.578 420.287 194.232 418.629 202.844C418.481 203.616 416.951 204.538 415.964 204.676C393.81 207.77 371.639 210.767 349.471 213.76C349.44 213.764 349.41 213.766 349.377 213.766C349.03 213.766 348.544 213.514 346.789 213.014ZM740.464 188.873C787.233 187.321 833.937 183.942 880.699 182.081C931.907 180.044 983.147 178.806 1034.38 177.336C1054.74 176.75 1075.13 175.743 1095.48 176.281C1112.12 176.724 1128.71 179.176 1145.33 180.738C1145.47 181.362 1145.62 181.988 1145.77 182.614C1141.84 185.691 1137.96 188.84 1133.97 191.835C1095.34 220.777 1058.05 251.315 1023.72 285.307C1004.32 304.508 986.292 324.88 972.225 348.479C971.315 350.007 968.912 351.384 967.112 351.506C961.489 351.89 955.822 351.632 950.173 351.632C683.194 351.646 416.216 351.652 149.238 351.772C145.308 351.774 143.098 350.697 141.089 347.284C132.408 332.531 126.571 316.872 124.351 299.331C129.692 298.651 134.673 298.25 139.537 297.259C141.042 296.952 142.221 295.041 143.547 293.864C142.021 292.855 140.5 290.998 138.97 290.994C134.368 290.975 129.765 291.676 124.158 292.188C124.658 286.15 124.966 280.198 125.818 274.323C125.962 273.313 128.318 272.202 129.81 271.897C133.152 271.21 136.646 271.241 139.972 270.499C141.869 270.077 143.557 268.711 145.339 267.773C145.205 267.113 145.069 266.452 144.935 265.792H127.668C128.883 254.044 130.773 251.461 141.802 249.785C169.106 245.643 196.488 242.011 223.81 237.998C263.7 232.139 303.541 225.953 343.449 220.232C391.144 213.394 438.868 206.749 486.618 200.298C533.972 193.901 581.38 187.91 628.746 181.606C641.647 179.889 654.277 179.688 667.098 182.971C685.821 187.768 704.981 189.167 724.128 189.167C729.577 189.167 735.028 189.054 740.464 188.873ZM331.333 195.14C332.05 192.863 338.222 192.308 343.429 190.411C342.576 199.047 342.113 205.824 341.064 212.508C340.865 213.76 338.458 215.044 336.826 215.592C334.592 216.346 332.125 216.413 328.405 216.982C329.273 209.209 329.22 201.832 331.333 195.14ZM245.615 228.08C246.865 222.256 247.854 216.748 249.343 211.379C249.715 210.042 251.566 208.439 252.969 208.167C276.446 203.651 299.961 199.323 323.473 194.972C323.629 194.943 323.828 195.136 325.413 195.926C324.625 202.352 323.869 209.373 322.766 216.338C322.638 217.146 320.641 218.048 319.412 218.235C296.152 221.727 272.883 225.132 249.605 228.497C249.422 228.523 249.237 228.533 249.048 228.533C248.096 228.533 247.039 228.241 245.615 228.08ZM150.521 241.643C154.434 232.32 158.276 222.969 162.355 213.723C162.812 212.685 164.541 211.826 165.811 211.594C183.772 208.297 201.758 205.125 219.737 201.922C219.967 202.387 220.192 202.848 220.422 203.313C219.534 204.453 218.75 205.692 217.744 206.714C208.703 215.889 199.728 225.132 190.474 234.087C188.487 236.009 185.588 237.551 182.882 238.063C172.684 239.991 162.39 241.421 152.132 243.038C151.596 242.573 151.058 242.108 150.521 241.643ZM232.473 230.408C233.129 215.279 235.408 210.781 242.482 210.251C244.319 220.736 239.823 230.416 232.816 230.416C232.702 230.416 232.589 230.414 232.473 230.408ZM230.033 212.825C228.487 219.117 227.16 225.071 225.454 230.914C225.18 231.845 223.258 232.671 221.992 232.864C213.888 234.1 205.758 235.146 197.215 236.31C204.73 222.816 217.573 213.367 230.033 212.825ZM161.082 374.44C156.738 369.215 152.321 364.053 146.682 357.379H965.885V379.212C963.52 379.212 961.371 379.214 959.219 379.212C696.907 379.129 434.591 379.038 172.28 379.044C167.682 379.044 164.025 377.977 161.082 374.44Z" fill="url(#paint1_linear_131_8)"/>
</g>
<defs>
<linearGradient id="paint0_linear_131_8" x1="3.07059" y1="252.7" x2="1204" y2="252.7" gradientUnits="userSpaceOnUse">
<stop stop-color="white"/>
<stop offset="0.209987" stop-color="white"/>
<stop offset="0.504964" stop-color="white"/>
<stop offset="1" stop-color="white" stop-opacity="0.700008"/>
</linearGradient>
<linearGradient id="paint1_linear_131_8" x1="635" y1="106.88" x2="1106.5" y2="202.38" gradientUnits="userSpaceOnUse">
<stop stop-opacity="0"/>
<stop offset="1" stop-color="#FFFDC0"/>
</linearGradient>
</defs>
</svg>
